G04*
G04 #@! TF.GenerationSoftware,Altium Limited,Altium Designer,19.1.5 (86)*
G04*
G04 Layer_Color=8388736*
%FSLAX44Y44*%
%MOMM*%
G71*
G01*
G75*
%ADD38R,1.5032X1.2032*%
%ADD39R,0.8032X0.8032*%
%ADD40R,3.2032X2.6032*%
%ADD41R,0.7032X0.7032*%
%ADD42R,3.2032X1.6032*%
%ADD43R,1.2032X1.5032*%
%ADD44O,0.4532X1.7532*%
%ADD45O,1.7532X0.4532*%
%ADD46R,1.1032X1.9032*%
G04:AMPARAMS|DCode=47|XSize=1.1032mm|YSize=1.9032mm|CornerRadius=0.3266mm|HoleSize=0mm|Usage=FLASHONLY|Rotation=180.000|XOffset=0mm|YOffset=0mm|HoleType=Round|Shape=RoundedRectangle|*
%AMROUNDEDRECTD47*
21,1,1.1032,1.2500,0,0,180.0*
21,1,0.4500,1.9032,0,0,180.0*
1,1,0.6532,-0.2250,0.6250*
1,1,0.6532,0.2250,0.6250*
1,1,0.6532,0.2250,-0.6250*
1,1,0.6532,-0.2250,-0.6250*
%
%ADD47ROUNDEDRECTD47*%
%ADD48R,2.0032X2.6032*%
G04:AMPARAMS|DCode=49|XSize=2.0032mm|YSize=2.6032mm|CornerRadius=0.5516mm|HoleSize=0mm|Usage=FLASHONLY|Rotation=180.000|XOffset=0mm|YOffset=0mm|HoleType=Round|Shape=RoundedRectangle|*
%AMROUNDEDRECTD49*
21,1,2.0032,1.5000,0,0,180.0*
21,1,0.9000,2.6032,0,0,180.0*
1,1,1.1032,-0.4500,0.7500*
1,1,1.1032,0.4500,0.7500*
1,1,1.1032,0.4500,-0.7500*
1,1,1.1032,-0.4500,-0.7500*
%
%ADD49ROUNDEDRECTD49*%
%ADD50R,0.9332X1.9832*%
G04:AMPARAMS|DCode=51|XSize=0.9332mm|YSize=1.9832mm|CornerRadius=0.2841mm|HoleSize=0mm|Usage=FLASHONLY|Rotation=180.000|XOffset=0mm|YOffset=0mm|HoleType=Round|Shape=RoundedRectangle|*
%AMROUNDEDRECTD51*
21,1,0.9332,1.4150,0,0,180.0*
21,1,0.3650,1.9832,0,0,180.0*
1,1,0.5682,-0.1825,0.7075*
1,1,0.5682,0.1825,0.7075*
1,1,0.5682,0.1825,-0.7075*
1,1,0.5682,-0.1825,-0.7075*
%
%ADD51ROUNDEDRECTD51*%
%ADD52R,1.2032X1.2032*%
G04:AMPARAMS|DCode=53|XSize=1.2032mm|YSize=1.2032mm|CornerRadius=0.3516mm|HoleSize=0mm|Usage=FLASHONLY|Rotation=0.000|XOffset=0mm|YOffset=0mm|HoleType=Round|Shape=RoundedRectangle|*
%AMROUNDEDRECTD53*
21,1,1.2032,0.5000,0,0,0.0*
21,1,0.5000,1.2032,0,0,0.0*
1,1,0.7032,0.2500,-0.2500*
1,1,0.7032,-0.2500,-0.2500*
1,1,0.7032,-0.2500,0.2500*
1,1,0.7032,0.2500,0.2500*
%
%ADD53ROUNDEDRECTD53*%
%ADD54R,0.8032X0.8032*%
G04:AMPARAMS|DCode=55|XSize=2.2032mm|YSize=2.4032mm|CornerRadius=0.6016mm|HoleSize=0mm|Usage=FLASHONLY|Rotation=270.000|XOffset=0mm|YOffset=0mm|HoleType=Round|Shape=RoundedRectangle|*
%AMROUNDEDRECTD55*
21,1,2.2032,1.2000,0,0,270.0*
21,1,1.0000,2.4032,0,0,270.0*
1,1,1.2032,-0.6000,-0.5000*
1,1,1.2032,-0.6000,0.5000*
1,1,1.2032,0.6000,0.5000*
1,1,1.2032,0.6000,-0.5000*
%
%ADD55ROUNDEDRECTD55*%
%ADD56R,2.4032X2.2032*%
%ADD57C,1.8032*%
%ADD58C,2.2032*%
%ADD59R,2.2032X2.2032*%
%ADD60C,1.7272*%
%ADD61C,1.6032*%
%ADD62C,2.0032*%
%ADD63R,2.0032X2.0032*%
%ADD64R,1.8032X1.8032*%
G04:AMPARAMS|DCode=65|XSize=1.9032mm|YSize=3.2032mm|CornerRadius=0.5266mm|HoleSize=0mm|Usage=FLASHONLY|Rotation=0.000|XOffset=0mm|YOffset=0mm|HoleType=Round|Shape=RoundedRectangle|*
%AMROUNDEDRECTD65*
21,1,1.9032,2.1500,0,0,0.0*
21,1,0.8500,3.2032,0,0,0.0*
1,1,1.0532,0.4250,-1.0750*
1,1,1.0532,-0.4250,-1.0750*
1,1,1.0532,-0.4250,1.0750*
1,1,1.0532,0.4250,1.0750*
%
%ADD65ROUNDEDRECTD65*%
%ADD66C,0.7032*%
D38*
X1188720Y895350D02*
D03*
Y875350D02*
D03*
X1169670Y895825D02*
D03*
Y875825D02*
D03*
X1356360Y876300D02*
D03*
Y856300D02*
D03*
X1337275D02*
D03*
Y876300D02*
D03*
X1318260Y875980D02*
D03*
Y855980D02*
D03*
X1375410Y835660D02*
D03*
Y855660D02*
D03*
X1394460Y835660D02*
D03*
Y855660D02*
D03*
X1289050Y702310D02*
D03*
Y722310D02*
D03*
X1314450Y722310D02*
D03*
Y702310D02*
D03*
X1363980Y599760D02*
D03*
Y619760D02*
D03*
X1267460Y736600D02*
D03*
Y716600D02*
D03*
X1209040Y674370D02*
D03*
Y694370D02*
D03*
X1228090Y674370D02*
D03*
Y694370D02*
D03*
X1219200Y472440D02*
D03*
Y452440D02*
D03*
X1253490Y391480D02*
D03*
Y411480D02*
D03*
X1234440D02*
D03*
Y391480D02*
D03*
X1275080Y310200D02*
D03*
Y330200D02*
D03*
X1162050Y314010D02*
D03*
Y334010D02*
D03*
Y279400D02*
D03*
Y299400D02*
D03*
X1282700Y380730D02*
D03*
Y360730D02*
D03*
X1319530Y317230D02*
D03*
Y337230D02*
D03*
X1301750Y317230D02*
D03*
Y337230D02*
D03*
D39*
X1372870Y895300D02*
D03*
Y876300D02*
D03*
X1402870Y885800D02*
D03*
Y876300D02*
D03*
Y895300D02*
D03*
X1160780Y362610D02*
D03*
Y381610D02*
D03*
Y372110D02*
D03*
X1190780Y381610D02*
D03*
Y362610D02*
D03*
D40*
X1283970Y867410D02*
D03*
X1283971Y822409D02*
D03*
D41*
X1369060Y796290D02*
D03*
Y782290D02*
D03*
D42*
X1367790Y474980D02*
D03*
Y500230D02*
D03*
D43*
X1173160Y528320D02*
D03*
X1153160D02*
D03*
X1153480Y497840D02*
D03*
X1173480D02*
D03*
X1207770D02*
D03*
X1187770D02*
D03*
X1227770Y515620D02*
D03*
X1207770D02*
D03*
X1382776Y439420D02*
D03*
X1402776D02*
D03*
X1336040D02*
D03*
X1316040D02*
D03*
X1403030Y422656D02*
D03*
X1383030D02*
D03*
X1316040Y421640D02*
D03*
X1336040D02*
D03*
Y403590D02*
D03*
X1316040D02*
D03*
X1301430D02*
D03*
X1281430D02*
D03*
X1337818Y316548D02*
D03*
X1357818D02*
D03*
D44*
X1269170Y677790D02*
D03*
X1274170D02*
D03*
X1279170D02*
D03*
X1284170D02*
D03*
X1289170D02*
D03*
X1294170D02*
D03*
X1299170D02*
D03*
X1304170D02*
D03*
X1309170D02*
D03*
X1314170D02*
D03*
X1319170D02*
D03*
X1324170D02*
D03*
Y597290D02*
D03*
X1319170Y597290D02*
D03*
X1314170D02*
D03*
X1309170D02*
D03*
X1304170D02*
D03*
X1299170D02*
D03*
X1294170Y597290D02*
D03*
X1289170D02*
D03*
X1284170D02*
D03*
X1279170Y597290D02*
D03*
X1274170D02*
D03*
X1269170D02*
D03*
D45*
X1336920Y665040D02*
D03*
Y660040D02*
D03*
Y655040D02*
D03*
Y650040D02*
D03*
Y645040D02*
D03*
Y640040D02*
D03*
Y635040D02*
D03*
Y630040D02*
D03*
Y625040D02*
D03*
Y620040D02*
D03*
X1336920Y615040D02*
D03*
X1336920Y610040D02*
D03*
X1256420D02*
D03*
X1256420Y615040D02*
D03*
Y620040D02*
D03*
Y625040D02*
D03*
X1256420Y630040D02*
D03*
Y635040D02*
D03*
X1256420Y640040D02*
D03*
Y645040D02*
D03*
Y650040D02*
D03*
Y655040D02*
D03*
Y660040D02*
D03*
X1256420Y665040D02*
D03*
D46*
X1200150Y406400D02*
D03*
X1174750D02*
D03*
Y472440D02*
D03*
X1187450Y406400D02*
D03*
Y472440D02*
D03*
X1162050D02*
D03*
Y406400D02*
D03*
D47*
X1200150Y472440D02*
D03*
D48*
X1189991Y289009D02*
D03*
D49*
X1189990Y334010D02*
D03*
D50*
X1258570Y289560D02*
D03*
X1245870D02*
D03*
X1220470D02*
D03*
X1233170D02*
D03*
Y340360D02*
D03*
X1220470D02*
D03*
X1245870D02*
D03*
D51*
X1258570D02*
D03*
D52*
X1327150Y370570D02*
D03*
X1301650Y360570D02*
D03*
D53*
Y380570D02*
D03*
D54*
X1398528Y344956D02*
D03*
X1379528D02*
D03*
X1389028Y314956D02*
D03*
X1379528D02*
D03*
X1398528D02*
D03*
X1389028Y344956D02*
D03*
D55*
X1329690Y500380D02*
D03*
D56*
Y474380D02*
D03*
D57*
X1300480Y951230D02*
D03*
Y925830D02*
D03*
X1275080Y951230D02*
D03*
Y925830D02*
D03*
X1198880D02*
D03*
Y951230D02*
D03*
X1224280Y925830D02*
D03*
Y951230D02*
D03*
X1249680Y925830D02*
D03*
Y951230D02*
D03*
X1337310Y284210D02*
D03*
X1362710Y263890D02*
D03*
X1337310D02*
D03*
D58*
X1381760Y965200D02*
D03*
X1407160D02*
D03*
X1381760Y1041400D02*
D03*
X1242060Y758190D02*
D03*
X1267460D02*
D03*
X1292860D02*
D03*
X1318260D02*
D03*
X1343660D02*
D03*
D59*
X1407160Y1041400D02*
D03*
X1369060Y758190D02*
D03*
D60*
X1174750Y617480D02*
D03*
Y665480D02*
D03*
D61*
X1252220Y447040D02*
D03*
Y472440D02*
D03*
Y523240D02*
D03*
Y497840D02*
D03*
D62*
X1233170Y237220D02*
D03*
X1207770D02*
D03*
D63*
X1182370D02*
D03*
D64*
X1362710Y284210D02*
D03*
D65*
X1412240Y238490D02*
D03*
X1286510D02*
D03*
D66*
X1384554Y472186D02*
D03*
X1176528Y533400D02*
D03*
X1329690Y563626D02*
D03*
X1302662Y852170D02*
D03*
X1320800Y723900D02*
D03*
X1289050Y662940D02*
D03*
X1269170Y665040D02*
D03*
X1321832Y665040D02*
D03*
X1318260Y652780D02*
D03*
X1281499Y630040D02*
D03*
X1272540Y616990D02*
D03*
X1320800Y615950D02*
D03*
X1304865Y610175D02*
D03*
X1388110Y609600D02*
D03*
X1379220Y596900D02*
D03*
X1188720Y864679D02*
D03*
X1369060Y623570D02*
D03*
X1397858Y666750D02*
D03*
X1332230Y703580D02*
D03*
X1237120Y619900D02*
D03*
X1267460Y361950D02*
D03*
X1336040Y453390D02*
D03*
X1334770Y392430D02*
D03*
X1160780Y354330D02*
D03*
X1290320Y350520D02*
D03*
X1169670Y864075D02*
D03*
X1191578Y389572D02*
D03*
X1262380Y273050D02*
D03*
X1233170D02*
D03*
M02*
