G04*
G04 #@! TF.GenerationSoftware,Altium Limited,Altium Designer,19.1.5 (86)*
G04*
G04 Layer_Color=16711935*
%FSLAX44Y44*%
%MOMM*%
G71*
G01*
G75*
%ADD38R,1.5032X1.2032*%
%ADD40R,3.2032X2.6032*%
%ADD43R,1.2032X1.5032*%
%ADD57C,1.8032*%
%ADD58C,2.2032*%
%ADD59R,2.2032X2.2032*%
%ADD60C,1.7272*%
%ADD61C,1.6032*%
%ADD62C,2.0032*%
%ADD63R,2.0032X2.0032*%
%ADD64R,1.8032X1.8032*%
G04:AMPARAMS|DCode=65|XSize=1.9032mm|YSize=3.2032mm|CornerRadius=0.5266mm|HoleSize=0mm|Usage=FLASHONLY|Rotation=0.000|XOffset=0mm|YOffset=0mm|HoleType=Round|Shape=RoundedRectangle|*
%AMROUNDEDRECTD65*
21,1,1.9032,2.1500,0,0,0.0*
21,1,0.8500,3.2032,0,0,0.0*
1,1,1.0532,0.4250,-1.0750*
1,1,1.0532,-0.4250,-1.0750*
1,1,1.0532,-0.4250,1.0750*
1,1,1.0532,0.4250,1.0750*
%
%ADD65ROUNDEDRECTD65*%
%ADD66C,0.7032*%
%ADD84R,2.2032X2.4032*%
G04:AMPARAMS|DCode=85|XSize=2.2032mm|YSize=2.4032mm|CornerRadius=0.6016mm|HoleSize=0mm|Usage=FLASHONLY|Rotation=180.000|XOffset=0mm|YOffset=0mm|HoleType=Round|Shape=RoundedRectangle|*
%AMROUNDEDRECTD85*
21,1,2.2032,1.2000,0,0,180.0*
21,1,1.0000,2.4032,0,0,180.0*
1,1,1.2032,-0.5000,0.6000*
1,1,1.2032,0.5000,0.6000*
1,1,1.2032,0.5000,-0.6000*
1,1,1.2032,-0.5000,-0.6000*
%
%ADD85ROUNDEDRECTD85*%
%ADD86R,1.0032X1.2032*%
%ADD87R,2.9032X2.2032*%
%ADD88R,3.9032X2.6532*%
D38*
X1249680Y994410D02*
D03*
Y974410D02*
D03*
X1275080Y994090D02*
D03*
Y974090D02*
D03*
X1386840Y284414D02*
D03*
Y264414D02*
D03*
X1267460Y786130D02*
D03*
Y806130D02*
D03*
X1338093Y1009330D02*
D03*
Y989330D02*
D03*
X1354603D02*
D03*
Y1009330D02*
D03*
X1272540Y504190D02*
D03*
Y524190D02*
D03*
Y449580D02*
D03*
Y469580D02*
D03*
X1252220Y306120D02*
D03*
Y326120D02*
D03*
D40*
X1178561Y499661D02*
D03*
X1178560Y454660D02*
D03*
D43*
X1313180Y783590D02*
D03*
X1293180D02*
D03*
X1330640Y618260D02*
D03*
X1310640D02*
D03*
Y638810D02*
D03*
X1330640D02*
D03*
Y657860D02*
D03*
X1310640D02*
D03*
X1289050Y618260D02*
D03*
X1269050D02*
D03*
Y638810D02*
D03*
X1289050D02*
D03*
X1269050Y657860D02*
D03*
X1289050D02*
D03*
X1194750Y633730D02*
D03*
X1174750D02*
D03*
X1194750Y650240D02*
D03*
X1174750D02*
D03*
X1158240Y393700D02*
D03*
X1178240D02*
D03*
X1158560Y412750D02*
D03*
X1178560D02*
D03*
D57*
X1300480Y951230D02*
D03*
Y925830D02*
D03*
X1275080Y951230D02*
D03*
Y925830D02*
D03*
X1198880D02*
D03*
Y951230D02*
D03*
X1224280Y925830D02*
D03*
Y951230D02*
D03*
X1249680Y925830D02*
D03*
Y951230D02*
D03*
X1337310Y284210D02*
D03*
X1362710Y263890D02*
D03*
X1337310D02*
D03*
D58*
X1381760Y965200D02*
D03*
X1407160D02*
D03*
X1381760Y1041400D02*
D03*
X1242060Y758190D02*
D03*
X1267460D02*
D03*
X1292860D02*
D03*
X1318260D02*
D03*
X1343660D02*
D03*
D59*
X1407160Y1041400D02*
D03*
X1369060Y758190D02*
D03*
D60*
X1174750Y617480D02*
D03*
Y665480D02*
D03*
D61*
X1252220Y447040D02*
D03*
Y472440D02*
D03*
Y523240D02*
D03*
Y497840D02*
D03*
D62*
X1233170Y237220D02*
D03*
X1207770D02*
D03*
D63*
X1182370D02*
D03*
D64*
X1362710Y284210D02*
D03*
D65*
X1412240Y238490D02*
D03*
X1286510D02*
D03*
D66*
X1384554Y472186D02*
D03*
X1176528Y533400D02*
D03*
X1329690Y563626D02*
D03*
X1302662Y852170D02*
D03*
X1320800Y723900D02*
D03*
X1289050Y662940D02*
D03*
X1269170Y665040D02*
D03*
X1321832Y665040D02*
D03*
X1318260Y652780D02*
D03*
X1281499Y630040D02*
D03*
X1272540Y616990D02*
D03*
X1320800Y615950D02*
D03*
X1304865Y610175D02*
D03*
X1388110Y609600D02*
D03*
X1379220Y596900D02*
D03*
X1188720Y864679D02*
D03*
X1369060Y623570D02*
D03*
X1397858Y666750D02*
D03*
X1332230Y703580D02*
D03*
X1237120Y619900D02*
D03*
X1267460Y361950D02*
D03*
X1336040Y453390D02*
D03*
X1334770Y392430D02*
D03*
X1160780Y354330D02*
D03*
X1290320Y350520D02*
D03*
X1169670Y864075D02*
D03*
X1191578Y389572D02*
D03*
X1262380Y273050D02*
D03*
X1233170D02*
D03*
D84*
X1338580Y935990D02*
D03*
D85*
X1364580D02*
D03*
D86*
X1182370Y261010D02*
D03*
X1195070D02*
D03*
X1188720Y282940D02*
D03*
D87*
X1278890Y326390D02*
D03*
Y293390D02*
D03*
X1225550Y327640D02*
D03*
Y294640D02*
D03*
D88*
X1184910Y363650D02*
D03*
Y312150D02*
D03*
M02*
