G04*
G04 #@! TF.GenerationSoftware,Altium Limited,Altium Designer,19.1.5 (86)*
G04*
G04 Layer_Color=65535*
%FSLAX44Y44*%
%MOMM*%
G71*
G01*
G75*
%ADD10C,1.0000*%
%ADD11C,0.6000*%
%ADD12C,0.2500*%
%ADD13C,0.1000*%
%ADD14C,0.2000*%
%ADD15C,0.3000*%
%ADD16C,0.1500*%
%ADD17C,0.2540*%
%ADD18C,0.0500*%
D10*
X1387014Y727964D02*
G03*
X1387014Y727964I-5000J0D01*
G01*
D11*
X1427940Y1045210D02*
G03*
X1427940Y1045210I-3000J0D01*
G01*
X1281170Y656040D02*
G03*
X1281170Y656040I-3000J0D01*
G01*
X1255220Y538480D02*
G03*
X1255220Y538480I-3000J0D01*
G01*
X1205690Y492760D02*
G03*
X1205690Y492760I-3000J0D01*
G01*
X1261170Y321860D02*
G03*
X1261170Y321860I-3000J0D01*
G01*
X1386030Y285240D02*
G03*
X1386030Y285240I-3000J0D01*
G01*
D12*
X1397120Y876050D02*
G03*
X1397120Y876050I-1250J0D01*
G01*
X1257670Y671790D02*
G03*
X1257670Y671790I-1250J0D01*
G01*
X1169030Y381860D02*
G03*
X1169030Y381860I-1250J0D01*
G01*
X1310900Y380570D02*
G03*
X1310900Y380570I-1250J0D01*
G01*
X1380528Y321956D02*
G03*
X1380528Y321956I-1250J0D01*
G01*
D13*
X1361540Y488418D02*
G03*
X1365540Y488418I2000J0D01*
G01*
X1365540D02*
G03*
X1369540Y488418I2000J0D01*
G01*
D02*
G03*
X1373540Y488418I2000J0D01*
G01*
X1354029Y868715D02*
X1352862Y867549D01*
Y865216D01*
X1354029Y864050D01*
X1358694D01*
X1359860Y865216D01*
Y867549D01*
X1358694Y868715D01*
X1339606Y863885D02*
X1340773Y865051D01*
Y867384D01*
X1339606Y868550D01*
X1334941D01*
X1333775Y867384D01*
Y865051D01*
X1334941Y863885D01*
X1315929Y868395D02*
X1314762Y867229D01*
Y864896D01*
X1315929Y863730D01*
X1320594D01*
X1321760Y864896D01*
Y867229D01*
X1320594Y868395D01*
X1377741Y843245D02*
X1378908Y844411D01*
Y846744D01*
X1377741Y847910D01*
X1373076D01*
X1371910Y846744D01*
Y844411D01*
X1373076Y843245D01*
X1396791D02*
X1397958Y844411D01*
Y846744D01*
X1396791Y847910D01*
X1392126D01*
X1390960Y846744D01*
Y844411D01*
X1392126Y843245D01*
X1265129Y729015D02*
X1263962Y727849D01*
Y725516D01*
X1265129Y724350D01*
X1269794D01*
X1270960Y725516D01*
Y727849D01*
X1269794Y729015D01*
X1216869Y464855D02*
X1215702Y463689D01*
Y461356D01*
X1216869Y460190D01*
X1221534D01*
X1222700Y461356D01*
Y463689D01*
X1221534Y464855D01*
X1277411Y317785D02*
X1278578Y318951D01*
Y321284D01*
X1277411Y322450D01*
X1272746D01*
X1271580Y321284D01*
Y318951D01*
X1272746Y317785D01*
X1159719Y291815D02*
X1158552Y290649D01*
Y288316D01*
X1159719Y287150D01*
X1164384D01*
X1165550Y288316D01*
Y290649D01*
X1164384Y291815D01*
D14*
X1242060Y773190D02*
G03*
X1242060Y743190I0J-15000D01*
G01*
X1369060D02*
G03*
X1369060Y773190I0J15000D01*
G01*
X1183880Y911230D02*
X1184317Y911205D01*
X1183880Y911230D02*
Y966230D01*
X1198880D01*
X1318260Y911219D02*
Y966230D01*
X1198880D02*
X1318260D01*
X1184317Y911205D02*
X1318260Y911219D01*
X1407160Y982980D02*
Y996950D01*
X1398270Y998220D02*
X1407160Y1010920D01*
Y1024890D01*
X1361440Y951230D02*
Y1056640D01*
Y951230D02*
X1430020D01*
Y1056640D01*
X1361440D02*
X1430020D01*
X1350360Y856300D02*
Y876300D01*
X1362360D01*
Y856300D02*
Y876300D01*
X1350360Y856300D02*
X1362360D01*
X1350360Y860300D02*
X1362360D01*
X1350360Y872300D02*
X1362360D01*
X1343275Y856300D02*
Y876300D01*
X1331275Y856300D02*
X1343275D01*
X1331275D02*
Y876300D01*
X1343275D01*
X1331275Y872300D02*
X1343275D01*
X1331275Y860300D02*
X1343275D01*
X1312260Y855980D02*
Y875980D01*
X1324260D01*
Y855980D02*
Y875980D01*
X1312260Y855980D02*
X1324260D01*
X1312260Y859980D02*
X1324260D01*
X1312260Y871980D02*
X1324260D01*
X1381410Y835660D02*
Y855660D01*
X1369410Y835660D02*
X1381410D01*
X1369410D02*
Y855660D01*
X1381410D01*
X1369410Y851660D02*
X1381410D01*
X1369410Y839660D02*
X1381410D01*
X1400460Y835660D02*
Y855660D01*
X1388460Y835660D02*
X1400460D01*
X1388460D02*
Y855660D01*
X1400460D01*
X1388460Y851660D02*
X1400460D01*
X1388460Y839660D02*
X1400460D01*
X1149750Y700480D02*
X1199750D01*
X1149750Y585480D02*
Y700480D01*
Y585480D02*
X1199750D01*
Y700480D01*
X1261460Y716600D02*
Y736600D01*
X1273460D01*
Y716600D02*
Y736600D01*
X1261460Y716600D02*
X1273460D01*
X1261460Y720600D02*
X1273460D01*
X1261460Y732600D02*
X1273460D01*
X1351290Y466230D02*
X1384290D01*
Y508730D01*
X1351290D02*
X1384290D01*
X1351290Y466230D02*
Y508730D01*
X1160480Y490840D02*
X1166480D01*
X1160480Y504840D02*
X1166480D01*
X1194770D02*
X1200770D01*
X1194770Y490840D02*
X1200770D01*
X1213200Y452440D02*
Y472440D01*
X1225200D01*
Y452440D02*
Y472440D01*
X1213200Y452440D02*
X1225200D01*
X1213200Y456440D02*
X1225200D01*
X1213200Y468440D02*
X1225200D01*
X1268170Y609040D02*
X1325170D01*
X1268170Y666040D02*
X1325170Y666040D01*
X1325170Y609040D01*
X1268170D02*
Y666040D01*
X1260490Y398480D02*
Y404480D01*
X1246490Y398480D02*
Y404480D01*
X1390030Y429656D02*
X1396030D01*
X1390030Y415656D02*
X1396030D01*
X1323040Y414640D02*
X1329040D01*
X1323040Y428640D02*
X1329040D01*
X1281080Y310200D02*
Y330200D01*
X1269080Y310200D02*
X1281080D01*
X1269080D02*
Y330200D01*
X1281080D01*
X1269080Y326200D02*
X1281080D01*
X1269080Y314200D02*
X1281080D01*
X1209040Y394970D02*
Y485140D01*
X1153160Y394970D02*
X1209040D01*
X1153160D02*
Y485140D01*
X1209040D01*
X1156050Y295400D02*
X1168050D01*
X1156050Y283400D02*
X1168050D01*
X1156050Y279400D02*
X1168050D01*
Y299400D01*
X1156050D02*
X1168050D01*
X1156050Y279400D02*
Y299400D01*
X1177490Y334010D02*
X1202490D01*
X1189990Y274010D02*
Y349010D01*
X1177490Y301510D02*
X1202490D01*
X1189990Y332760D02*
Y334010D01*
X1177490Y301510D02*
X1189990Y334010D01*
X1202490Y301510D01*
X1167130Y267700D02*
X1248410D01*
Y205470D02*
Y267700D01*
X1167130Y205470D02*
X1248410D01*
X1167130D02*
Y267700D01*
Y220710D02*
X1248410D01*
X1195070Y205470D02*
Y220710D01*
X1221740Y205470D02*
Y220710D01*
X1268730Y300720D02*
Y304530D01*
X1427480Y303260D01*
Y130540D02*
Y303260D01*
X1268730Y130540D02*
X1427480D01*
X1268730D02*
Y300720D01*
X1346690Y462380D02*
Y512380D01*
X1312690Y462380D02*
X1346690D01*
X1312690D02*
Y512380D01*
X1346690D01*
X1242060Y773190D02*
X1369060D01*
X1241060Y743190D02*
X1369060D01*
D15*
X1272840Y900830D02*
Y910830D01*
X1222840Y900830D02*
X1272840D01*
X1222840D02*
Y910830D01*
X1301471Y867409D02*
Y882409D01*
Y867409D02*
X1308971D01*
X1266471D02*
Y882409D01*
X1258971Y867409D02*
X1266471D01*
X1258970Y807410D02*
Y882410D01*
X1308970D01*
Y807410D02*
Y882410D01*
X1258970Y807410D02*
X1308970D01*
D16*
X1181608Y881380D02*
X1195832D01*
X1181608Y889254D02*
X1195832D01*
X1181608Y881380D02*
Y889254D01*
X1195832Y881380D02*
Y889254D01*
X1162558Y881855D02*
X1176782D01*
X1162558Y889729D02*
X1176782D01*
X1162558Y881855D02*
Y889729D01*
X1176782Y881855D02*
Y889729D01*
X1281938Y716280D02*
X1296162D01*
X1281938Y708406D02*
X1296162D01*
Y716280D01*
X1281938Y708406D02*
Y716280D01*
X1307338Y708340D02*
X1321562D01*
X1307338Y716214D02*
X1321562D01*
X1307338Y708340D02*
Y716214D01*
X1321562Y708340D02*
Y716214D01*
X1356868Y613730D02*
X1371092D01*
X1356868Y605856D02*
X1371092D01*
Y613730D01*
X1356868Y605856D02*
Y613730D01*
X1201928Y688340D02*
X1216152D01*
X1201928Y680466D02*
X1216152D01*
Y688340D01*
X1201928Y680466D02*
Y688340D01*
X1220978D02*
X1235202D01*
X1220978Y680466D02*
X1235202D01*
Y688340D01*
X1220978Y680466D02*
Y688340D01*
X1159190Y521208D02*
Y535432D01*
X1167064Y521208D02*
Y535432D01*
X1159190D02*
X1167064D01*
X1159190Y521208D02*
X1167064D01*
X1166730Y493282D02*
Y502282D01*
X1160230Y497782D02*
X1166730Y493282D01*
X1160230D02*
Y502282D01*
Y497782D02*
X1166730Y502282D01*
X1194520Y493398D02*
Y502398D01*
X1201020Y497898D01*
Y493398D02*
Y502398D01*
X1194520Y493398D02*
X1201020Y497898D01*
X1213800Y508508D02*
Y522732D01*
X1221674Y508508D02*
Y522732D01*
X1213800D02*
X1221674D01*
X1213800Y508508D02*
X1221674D01*
X1396746Y432308D02*
Y446532D01*
X1388872Y432308D02*
Y446532D01*
Y432308D02*
X1396746D01*
X1388872Y446532D02*
X1396746D01*
X1249048Y404730D02*
X1258048D01*
X1253548Y398230D02*
X1258048Y404730D01*
X1249048Y398230D02*
X1258048D01*
X1249048Y404730D02*
X1253548Y398230D01*
X1322070Y432308D02*
Y446532D01*
X1329944Y432308D02*
Y446532D01*
X1322070D02*
X1329944D01*
X1322070Y432308D02*
X1329944D01*
X1227328Y397510D02*
X1241552D01*
X1227328Y405384D02*
X1241552D01*
X1227328Y397510D02*
Y405384D01*
X1241552Y397510D02*
Y405384D01*
X1389780Y418214D02*
Y427214D01*
X1396280Y422714D01*
Y418214D02*
Y427214D01*
X1389780Y418214D02*
X1396280Y422714D01*
X1329290Y417082D02*
Y426082D01*
X1322790Y421582D02*
X1329290Y417082D01*
X1322790D02*
Y426082D01*
Y421582D02*
X1329290Y426082D01*
X1169162Y320040D02*
Y327914D01*
X1154938Y320040D02*
Y327914D01*
X1169162D01*
X1154938Y320040D02*
X1169162D01*
X1275588Y366826D02*
Y374700D01*
X1289812Y366826D02*
Y374700D01*
X1275588Y366826D02*
X1289812D01*
X1275588Y374700D02*
X1289812D01*
X1322136Y410702D02*
X1330010D01*
X1322136Y396478D02*
X1330010D01*
X1322136D02*
Y410702D01*
X1330010Y396478D02*
Y410702D01*
X1287526D02*
X1295400D01*
X1287526Y396478D02*
X1295400D01*
X1287526D02*
Y410702D01*
X1295400Y396478D02*
Y410702D01*
X1343848Y309436D02*
X1351722D01*
X1343848Y323660D02*
X1351722D01*
Y309436D02*
Y323660D01*
X1343848Y309436D02*
Y323660D01*
X1326642Y323260D02*
Y331134D01*
X1312418Y323260D02*
Y331134D01*
X1326642D01*
X1312418Y323260D02*
X1326642D01*
X1308862D02*
Y331134D01*
X1294638Y323260D02*
Y331134D01*
X1308862D01*
X1294638Y323260D02*
X1308862D01*
X1186180Y886968D02*
X1191178D01*
Y884469D01*
X1190345Y883636D01*
X1188679D01*
X1187846Y884469D01*
Y886968D01*
Y885302D02*
X1186180Y883636D01*
X1167130Y887443D02*
X1172128D01*
Y884944D01*
X1171295Y884111D01*
X1169629D01*
X1168796Y884944D01*
Y887443D01*
Y885777D02*
X1167130Y884111D01*
X1291590Y710692D02*
X1286592D01*
Y713191D01*
X1287425Y714024D01*
X1289091D01*
X1289924Y713191D01*
Y710692D01*
Y712358D02*
X1291590Y714024D01*
X1311910Y713928D02*
X1316908D01*
Y711429D01*
X1316075Y710596D01*
X1314409D01*
X1313576Y711429D01*
Y713928D01*
Y712262D02*
X1311910Y710596D01*
X1366520Y608142D02*
X1361522D01*
Y610641D01*
X1362355Y611474D01*
X1364021D01*
X1364854Y610641D01*
Y608142D01*
Y609808D02*
X1366520Y611474D01*
X1211580Y682752D02*
X1206582D01*
Y685251D01*
X1207415Y686084D01*
X1209081D01*
X1209914Y685251D01*
Y682752D01*
Y684418D02*
X1211580Y686084D01*
X1230630Y682752D02*
X1225632D01*
Y685251D01*
X1226465Y686084D01*
X1228131D01*
X1228964Y685251D01*
Y682752D01*
Y684418D02*
X1230630Y686084D01*
X1164778Y530860D02*
Y525862D01*
X1162279D01*
X1161446Y526695D01*
Y528361D01*
X1162279Y529194D01*
X1164778D01*
X1163112D02*
X1161446Y530860D01*
X1219388Y518160D02*
Y513162D01*
X1216889D01*
X1216056Y513995D01*
Y515661D01*
X1216889Y516494D01*
X1219388D01*
X1217722D02*
X1216056Y518160D01*
X1391158Y436880D02*
Y441878D01*
X1393657D01*
X1394490Y441045D01*
Y439379D01*
X1393657Y438546D01*
X1391158D01*
X1392824D02*
X1394490Y436880D01*
X1327658Y441960D02*
Y436962D01*
X1325159D01*
X1324326Y437795D01*
Y439461D01*
X1325159Y440294D01*
X1327658D01*
X1325992D02*
X1324326Y441960D01*
X1231900Y403098D02*
X1236898D01*
Y400599D01*
X1236065Y399766D01*
X1234399D01*
X1233566Y400599D01*
Y403098D01*
Y401432D02*
X1231900Y399766D01*
X1159510Y325628D02*
X1164508D01*
Y323129D01*
X1163675Y322296D01*
X1162009D01*
X1161176Y323129D01*
Y325628D01*
Y323962D02*
X1159510Y322296D01*
X1285240Y369112D02*
X1280242D01*
Y371611D01*
X1281075Y372444D01*
X1282741D01*
X1283574Y371611D01*
Y369112D01*
Y370778D02*
X1285240Y372444D01*
X1324422Y401050D02*
Y406048D01*
X1326921D01*
X1327754Y405215D01*
Y403549D01*
X1326921Y402716D01*
X1324422D01*
X1326088D02*
X1327754Y401050D01*
X1289812D02*
Y406048D01*
X1292311D01*
X1293144Y405215D01*
Y403549D01*
X1292311Y402716D01*
X1289812D01*
X1291478D02*
X1293144Y401050D01*
X1349436Y319088D02*
Y314090D01*
X1346937D01*
X1346104Y314923D01*
Y316589D01*
X1346937Y317422D01*
X1349436D01*
X1347770D02*
X1346104Y319088D01*
X1316990Y328848D02*
X1321988D01*
Y326349D01*
X1321155Y325516D01*
X1319489D01*
X1318656Y326349D01*
Y328848D01*
Y327182D02*
X1316990Y325516D01*
X1299210Y328848D02*
X1304208D01*
Y326349D01*
X1303375Y325516D01*
X1301709D01*
X1300876Y326349D01*
Y328848D01*
Y327182D02*
X1299210Y325516D01*
D17*
X1367870Y865800D02*
Y905800D01*
X1407870D01*
Y865800D02*
Y905800D01*
X1367870Y865800D02*
X1407870D01*
X1363060Y786290D02*
X1375060D01*
X1363060Y801290D02*
X1375060D01*
X1363060Y776290D02*
Y801290D01*
Y776290D02*
X1375060D01*
Y801290D01*
X1303420Y421640D02*
Y548240D01*
X1238420Y421640D02*
X1303420D01*
X1238420D02*
Y548240D01*
X1303420D01*
X1155780Y392110D02*
X1195780D01*
X1155780Y352110D02*
Y392110D01*
Y352110D02*
X1195780D01*
Y392110D01*
X1172490Y274010D02*
X1207490D01*
Y349010D01*
X1172490D02*
X1207490D01*
X1172490Y274010D02*
Y349010D01*
X1213170Y299860D02*
Y329860D01*
Y299860D02*
X1266170D01*
Y329860D01*
X1213170D02*
X1266170D01*
X1294150Y390570D02*
X1334150D01*
X1294150Y350570D02*
Y390570D01*
Y350570D02*
X1334150D01*
Y390570D01*
X1369028Y349956D02*
X1409028D01*
Y309956D02*
Y349956D01*
X1369028Y309956D02*
X1409028D01*
X1369028D02*
Y349956D01*
X1238250Y378903D02*
X1243582D01*
X1240916Y381568D02*
Y376237D01*
X1251579Y382901D02*
X1246247D01*
Y378903D01*
X1248913Y380236D01*
X1250246D01*
X1251579Y378903D01*
Y376237D01*
X1250246Y374904D01*
X1247580D01*
X1246247Y376237D01*
X1254245Y382901D02*
Y377570D01*
X1256911Y374904D01*
X1259576Y377570D01*
Y382901D01*
X1411732Y423099D02*
X1417064D01*
X1414398Y425765D02*
Y420433D01*
X1419729Y425765D02*
X1421062Y427097D01*
X1423728D01*
X1425061Y425765D01*
Y424432D01*
X1423728Y423099D01*
X1422395D01*
X1423728D01*
X1425061Y421766D01*
Y420433D01*
X1423728Y419100D01*
X1421062D01*
X1419729Y420433D01*
X1427727Y419100D02*
Y420433D01*
X1429060D01*
Y419100D01*
X1427727D01*
X1434391Y425765D02*
X1435724Y427097D01*
X1438390D01*
X1439723Y425765D01*
Y424432D01*
X1438390Y423099D01*
X1437057D01*
X1438390D01*
X1439723Y421766D01*
Y420433D01*
X1438390Y419100D01*
X1435724D01*
X1434391Y420433D01*
X1442389Y427097D02*
Y421766D01*
X1445055Y419100D01*
X1447720Y421766D01*
Y427097D01*
X1346962Y424115D02*
X1352294D01*
X1349628Y426781D02*
Y421449D01*
X1360291Y428113D02*
X1354959D01*
Y424115D01*
X1357625Y425448D01*
X1358958D01*
X1360291Y424115D01*
Y421449D01*
X1358958Y420116D01*
X1356292D01*
X1354959Y421449D01*
X1362957Y428113D02*
Y421449D01*
X1364290Y420116D01*
X1366956D01*
X1368288Y421449D01*
Y428113D01*
X1168880Y916830D02*
X1173958D01*
X1171419D01*
Y932065D01*
X1168880Y929526D01*
X1324610Y947420D02*
X1329688D01*
X1327149D01*
Y962655D01*
X1324610Y960116D01*
X1337306D02*
X1339845Y962655D01*
X1344923D01*
X1347463Y960116D01*
Y949959D01*
X1344923Y947420D01*
X1339845D01*
X1337306Y949959D01*
Y960116D01*
X1263839Y474980D02*
Y469648D01*
Y449580D02*
Y444248D01*
X1266505Y446914D02*
X1261173D01*
X1263839Y500380D02*
Y495048D01*
X1266505Y497714D02*
X1261173D01*
X1263839Y525780D02*
Y520448D01*
X1272540Y474981D02*
Y469902D01*
X1275079Y467363D01*
X1280157D01*
X1282697Y469902D01*
Y474981D01*
X1280157Y477520D01*
X1275079D01*
X1272540Y474981D01*
X1282697Y462285D02*
X1275079D01*
X1272540Y459746D01*
Y452128D01*
X1282697D01*
X1285236Y444511D02*
X1282697D01*
Y447050D01*
Y441972D01*
Y444511D01*
X1275079D01*
X1272540Y441972D01*
Y523240D02*
Y518162D01*
Y520701D01*
X1282697D01*
Y523240D01*
X1272540Y510544D02*
X1282697D01*
Y502927D01*
X1280157Y500387D01*
X1272540D01*
X1205869Y586486D02*
X1213866D01*
Y590485D01*
X1212533Y591818D01*
X1211200D01*
X1209867Y590485D01*
Y586486D01*
Y590485D01*
X1208534Y591818D01*
X1207202D01*
X1205869Y590485D01*
Y586486D01*
X1212533Y599815D02*
X1207202D01*
X1205869Y598482D01*
Y595816D01*
X1207202Y594483D01*
X1212533D01*
X1213866Y595816D01*
Y598482D01*
X1211200Y597149D02*
X1213866Y599815D01*
Y598482D02*
X1212533Y599815D01*
X1213866Y607812D02*
Y602481D01*
X1208534Y607812D01*
X1207202D01*
X1205869Y606480D01*
Y603814D01*
X1207202Y602481D01*
X1137920Y258187D02*
X1143252Y250190D01*
Y258187D02*
X1137920Y250190D01*
X1151249Y256854D02*
X1149916Y258187D01*
X1147250D01*
X1145917Y256854D01*
Y255522D01*
X1147250Y254189D01*
X1149916D01*
X1151249Y252856D01*
Y251523D01*
X1149916Y250190D01*
X1147250D01*
X1145917Y251523D01*
X1159246Y250190D02*
X1153915D01*
X1159246Y255522D01*
Y256854D01*
X1157914Y258187D01*
X1155248D01*
X1153915Y256854D01*
X1273810Y298557D02*
X1279142Y290560D01*
Y298557D02*
X1273810Y290560D01*
X1287139Y297225D02*
X1285806Y298557D01*
X1283140D01*
X1281807Y297225D01*
Y295892D01*
X1283140Y294559D01*
X1285806D01*
X1287139Y293226D01*
Y291893D01*
X1285806Y290560D01*
X1283140D01*
X1281807Y291893D01*
X1289805Y290560D02*
X1292471D01*
X1291138D01*
Y298557D01*
X1289805Y297225D01*
X1228598Y789809D02*
X1233930Y781812D01*
Y789809D02*
X1228598Y781812D01*
X1236595D02*
Y789809D01*
X1240594D01*
X1241927Y788476D01*
Y785811D01*
X1240594Y784478D01*
X1236595D01*
X1248592Y781812D02*
Y789809D01*
X1244593Y785811D01*
X1249924D01*
X1290828Y907665D02*
X1296160Y899668D01*
Y907665D02*
X1290828Y899668D01*
X1298825D02*
Y907665D01*
X1302824D01*
X1304157Y906332D01*
Y903667D01*
X1302824Y902334D01*
X1298825D01*
X1306823Y906332D02*
X1308156Y907665D01*
X1310822D01*
X1312154Y906332D01*
Y905000D01*
X1310822Y903667D01*
X1309489D01*
X1310822D01*
X1312154Y902334D01*
Y901001D01*
X1310822Y899668D01*
X1308156D01*
X1306823Y901001D01*
X1336933Y369570D02*
X1342264D01*
X1344930Y372236D01*
X1342264Y374902D01*
X1336933D01*
Y377567D02*
Y382899D01*
Y380233D01*
X1344930D01*
Y385565D02*
Y388231D01*
Y386898D01*
X1336933D01*
X1338266Y385565D01*
X1245747Y850646D02*
X1251078D01*
X1253744Y853312D01*
X1251078Y855978D01*
X1245747D01*
Y858643D02*
X1253744D01*
Y862642D01*
X1252411Y863975D01*
X1247079D01*
X1245747Y862642D01*
Y858643D01*
X1253744Y871972D02*
Y866641D01*
X1248412Y871972D01*
X1247079D01*
X1245747Y870640D01*
Y867974D01*
X1247079Y866641D01*
X1253744Y879970D02*
Y874638D01*
X1248412Y879970D01*
X1247079D01*
X1245747Y878637D01*
Y875971D01*
X1247079Y874638D01*
X1380875Y774446D02*
X1386206D01*
X1388872Y777112D01*
X1386206Y779778D01*
X1380875D01*
Y782443D02*
X1388872D01*
Y786442D01*
X1387539Y787775D01*
X1382207D01*
X1380875Y786442D01*
Y782443D01*
X1388872Y795772D02*
Y790441D01*
X1383540Y795772D01*
X1382207D01*
X1380875Y794440D01*
Y791774D01*
X1382207Y790441D01*
Y798438D02*
X1380875Y799771D01*
Y802437D01*
X1382207Y803770D01*
X1387539D01*
X1388872Y802437D01*
Y799771D01*
X1387539Y798438D01*
X1382207D01*
X1264035Y390144D02*
X1269366D01*
X1272032Y392810D01*
X1269366Y395476D01*
X1264035D01*
Y398141D02*
X1272032D01*
Y402140D01*
X1270699Y403473D01*
X1265368D01*
X1264035Y402140D01*
Y398141D01*
X1272032Y406139D02*
Y408805D01*
Y407472D01*
X1264035D01*
X1265368Y406139D01*
Y412803D02*
X1264035Y414136D01*
Y416802D01*
X1265368Y418135D01*
X1266700D01*
X1268033Y416802D01*
X1269366Y418135D01*
X1270699D01*
X1272032Y416802D01*
Y414136D01*
X1270699Y412803D01*
X1269366D01*
X1268033Y414136D01*
X1266700Y412803D01*
X1265368D01*
X1268033Y414136D02*
Y416802D01*
X1412494Y414143D02*
Y408812D01*
X1415160Y406146D01*
X1417826Y408812D01*
Y414143D01*
X1420491D02*
Y406146D01*
X1424490D01*
X1425823Y407479D01*
Y412811D01*
X1424490Y414143D01*
X1420491D01*
X1428489Y406146D02*
X1431155D01*
X1429822D01*
Y414143D01*
X1428489Y412811D01*
X1435153Y414143D02*
X1440485D01*
Y412811D01*
X1435153Y407479D01*
Y406146D01*
X1201043Y351790D02*
X1206374D01*
X1209040Y354456D01*
X1206374Y357122D01*
X1201043D01*
Y359787D02*
X1209040D01*
Y363786D01*
X1207707Y365119D01*
X1202375D01*
X1201043Y363786D01*
Y359787D01*
X1209040Y367785D02*
Y370451D01*
Y369118D01*
X1201043D01*
X1202375Y367785D01*
X1201043Y379781D02*
Y374449D01*
X1205041D01*
X1203708Y377115D01*
Y378448D01*
X1205041Y379781D01*
X1207707D01*
X1209040Y378448D01*
Y375782D01*
X1207707Y374449D01*
X1346962Y415921D02*
Y410590D01*
X1349628Y407924D01*
X1352294Y410590D01*
Y415921D01*
X1354959D02*
Y407924D01*
X1358958D01*
X1360291Y409257D01*
Y414589D01*
X1358958Y415921D01*
X1354959D01*
X1362957Y407924D02*
X1365623D01*
X1364290D01*
Y415921D01*
X1362957Y414589D01*
X1373620Y407924D02*
Y415921D01*
X1369621Y411923D01*
X1374953D01*
X1170940Y517521D02*
Y512190D01*
X1173606Y509524D01*
X1176272Y512190D01*
Y517521D01*
X1178937D02*
Y509524D01*
X1182936D01*
X1184269Y510857D01*
Y516189D01*
X1182936Y517521D01*
X1178937D01*
X1186935Y509524D02*
X1189601D01*
X1188268D01*
Y517521D01*
X1186935Y516189D01*
X1193599D02*
X1194932Y517521D01*
X1197598D01*
X1198931Y516189D01*
Y514856D01*
X1197598Y513523D01*
X1196265D01*
X1197598D01*
X1198931Y512190D01*
Y510857D01*
X1197598Y509524D01*
X1194932D01*
X1193599Y510857D01*
X1136396Y517775D02*
Y512444D01*
X1139062Y509778D01*
X1141728Y512444D01*
Y517775D01*
X1144393D02*
Y509778D01*
X1148392D01*
X1149725Y511111D01*
Y516442D01*
X1148392Y517775D01*
X1144393D01*
X1152391Y509778D02*
X1155057D01*
X1153724D01*
Y517775D01*
X1152391Y516442D01*
X1164387Y509778D02*
X1159055D01*
X1164387Y515110D01*
Y516442D01*
X1163054Y517775D01*
X1160388D01*
X1159055Y516442D01*
X1442527Y1043942D02*
X1443859Y1045275D01*
Y1047941D01*
X1442527Y1049274D01*
X1441194D01*
X1439861Y1047941D01*
Y1045275D01*
X1438528Y1043942D01*
X1437195D01*
X1435862Y1045275D01*
Y1047941D01*
X1437195Y1049274D01*
X1443859Y1041277D02*
X1435862D01*
X1438528Y1038611D01*
X1435862Y1035945D01*
X1443859D01*
X1435862Y1033279D02*
Y1030613D01*
Y1031946D01*
X1443859D01*
X1442527Y1033279D01*
X1158748Y876554D02*
X1150751D01*
Y880553D01*
X1152084Y881886D01*
X1154749D01*
X1156082Y880553D01*
Y876554D01*
Y879220D02*
X1158748Y881886D01*
Y888550D02*
X1150751D01*
X1154749Y884551D01*
Y889883D01*
X1158748Y892549D02*
Y895215D01*
Y893882D01*
X1150751D01*
X1152084Y892549D01*
X1207516Y875030D02*
X1199519D01*
Y879029D01*
X1200852Y880362D01*
X1203517D01*
X1204850Y879029D01*
Y875030D01*
Y877696D02*
X1207516Y880362D01*
X1200852Y883027D02*
X1199519Y884360D01*
Y887026D01*
X1200852Y888359D01*
X1202184D01*
X1203517Y887026D01*
Y885693D01*
Y887026D01*
X1204850Y888359D01*
X1206183D01*
X1207516Y887026D01*
Y884360D01*
X1206183Y883027D01*
Y891025D02*
X1207516Y892358D01*
Y895024D01*
X1206183Y896356D01*
X1200852D01*
X1199519Y895024D01*
Y892358D01*
X1200852Y891025D01*
X1202184D01*
X1203517Y892358D01*
Y896356D01*
X1223264Y397002D02*
X1215267D01*
Y401001D01*
X1216600Y402334D01*
X1219265D01*
X1220598Y401001D01*
Y397002D01*
Y399668D02*
X1223264Y402334D01*
X1216600Y404999D02*
X1215267Y406332D01*
Y408998D01*
X1216600Y410331D01*
X1217932D01*
X1219265Y408998D01*
Y407665D01*
Y408998D01*
X1220598Y410331D01*
X1221931D01*
X1223264Y408998D01*
Y406332D01*
X1221931Y404999D01*
X1223264Y416996D02*
X1215267D01*
X1219265Y412997D01*
Y418328D01*
X1413510Y436372D02*
Y444369D01*
X1417509D01*
X1418842Y443036D01*
Y440371D01*
X1417509Y439038D01*
X1413510D01*
X1416176D02*
X1418842Y436372D01*
X1421507Y443036D02*
X1422840Y444369D01*
X1425506D01*
X1426839Y443036D01*
Y441704D01*
X1425506Y440371D01*
X1424173D01*
X1425506D01*
X1426839Y439038D01*
Y437705D01*
X1425506Y436372D01*
X1422840D01*
X1421507Y437705D01*
X1429505Y443036D02*
X1430838Y444369D01*
X1433504D01*
X1434836Y443036D01*
Y441704D01*
X1433504Y440371D01*
X1432171D01*
X1433504D01*
X1434836Y439038D01*
Y437705D01*
X1433504Y436372D01*
X1430838D01*
X1429505Y437705D01*
X1149350Y313690D02*
X1141353D01*
Y317689D01*
X1142685Y319022D01*
X1145351D01*
X1146684Y317689D01*
Y313690D01*
Y316356D02*
X1149350Y319022D01*
X1142685Y321687D02*
X1141353Y323020D01*
Y325686D01*
X1142685Y327019D01*
X1144018D01*
X1145351Y325686D01*
Y324353D01*
Y325686D01*
X1146684Y327019D01*
X1148017D01*
X1149350Y325686D01*
Y323020D01*
X1148017Y321687D01*
X1149350Y335016D02*
Y329685D01*
X1144018Y335016D01*
X1142685D01*
X1141353Y333684D01*
Y331018D01*
X1142685Y329685D01*
X1349248Y436626D02*
Y444623D01*
X1353247D01*
X1354580Y443290D01*
Y440625D01*
X1353247Y439292D01*
X1349248D01*
X1351914D02*
X1354580Y436626D01*
X1357245Y443290D02*
X1358578Y444623D01*
X1361244D01*
X1362577Y443290D01*
Y441958D01*
X1361244Y440625D01*
X1359911D01*
X1361244D01*
X1362577Y439292D01*
Y437959D01*
X1361244Y436626D01*
X1358578D01*
X1357245Y437959D01*
X1365243Y436626D02*
X1367909D01*
X1366576D01*
Y444623D01*
X1365243Y443290D01*
X1332230Y703580D02*
X1324233D01*
Y707579D01*
X1325565Y708912D01*
X1328231D01*
X1329564Y707579D01*
Y703580D01*
Y706246D02*
X1332230Y708912D01*
X1325565Y711577D02*
X1324233Y712910D01*
Y715576D01*
X1325565Y716909D01*
X1326898D01*
X1328231Y715576D01*
Y714243D01*
Y715576D01*
X1329564Y716909D01*
X1330897D01*
X1332230Y715576D01*
Y712910D01*
X1330897Y711577D01*
X1325565Y719575D02*
X1324233Y720908D01*
Y723574D01*
X1325565Y724906D01*
X1330897D01*
X1332230Y723574D01*
Y720908D01*
X1330897Y719575D01*
X1325565D01*
X1382776Y604266D02*
X1374779D01*
Y608265D01*
X1376111Y609598D01*
X1378777D01*
X1380110Y608265D01*
Y604266D01*
Y606932D02*
X1382776Y609598D01*
Y617595D02*
Y612263D01*
X1377444Y617595D01*
X1376111D01*
X1374779Y616262D01*
Y613596D01*
X1376111Y612263D01*
X1381443Y620261D02*
X1382776Y621594D01*
Y624260D01*
X1381443Y625592D01*
X1376111D01*
X1374779Y624260D01*
Y621594D01*
X1376111Y620261D01*
X1377444D01*
X1378777Y621594D01*
Y625592D01*
X1232408Y705612D02*
X1224411D01*
Y709611D01*
X1225743Y710944D01*
X1228409D01*
X1229742Y709611D01*
Y705612D01*
Y708278D02*
X1232408Y710944D01*
Y718941D02*
Y713609D01*
X1227076Y718941D01*
X1225743D01*
X1224411Y717608D01*
Y714942D01*
X1225743Y713609D01*
Y721607D02*
X1224411Y722940D01*
Y725606D01*
X1225743Y726938D01*
X1227076D01*
X1228409Y725606D01*
X1229742Y726938D01*
X1231075D01*
X1232408Y725606D01*
Y722940D01*
X1231075Y721607D01*
X1229742D01*
X1228409Y722940D01*
X1227076Y721607D01*
X1225743D01*
X1228409Y722940D02*
Y725606D01*
X1215136Y705358D02*
X1207139D01*
Y709357D01*
X1208472Y710690D01*
X1211137D01*
X1212470Y709357D01*
Y705358D01*
Y708024D02*
X1215136Y710690D01*
Y718687D02*
Y713355D01*
X1209804Y718687D01*
X1208472D01*
X1207139Y717354D01*
Y714688D01*
X1208472Y713355D01*
X1207139Y721353D02*
Y726684D01*
X1208472D01*
X1213803Y721353D01*
X1215136D01*
X1271524Y363982D02*
X1263527D01*
Y367981D01*
X1264859Y369314D01*
X1267525D01*
X1268858Y367981D01*
Y363982D01*
Y366648D02*
X1271524Y369314D01*
Y377311D02*
Y371979D01*
X1266192Y377311D01*
X1264859D01*
X1263527Y375978D01*
Y373312D01*
X1264859Y371979D01*
X1263527Y385308D02*
X1264859Y382643D01*
X1267525Y379977D01*
X1270191D01*
X1271524Y381310D01*
Y383976D01*
X1270191Y385308D01*
X1268858D01*
X1267525Y383976D01*
Y379977D01*
X1282700Y411480D02*
Y419477D01*
X1286699D01*
X1288032Y418144D01*
Y415479D01*
X1286699Y414146D01*
X1282700D01*
X1285366D02*
X1288032Y411480D01*
X1296029D02*
X1290697D01*
X1296029Y416812D01*
Y418144D01*
X1294696Y419477D01*
X1292030D01*
X1290697Y418144D01*
X1304026Y419477D02*
X1298695D01*
Y415479D01*
X1301361Y416812D01*
X1302694D01*
X1304026Y415479D01*
Y412813D01*
X1302694Y411480D01*
X1300028D01*
X1298695Y412813D01*
X1347216Y393700D02*
Y401697D01*
X1351215D01*
X1352548Y400364D01*
Y397699D01*
X1351215Y396366D01*
X1347216D01*
X1349882D02*
X1352548Y393700D01*
X1360545D02*
X1355213D01*
X1360545Y399032D01*
Y400364D01*
X1359212Y401697D01*
X1356546D01*
X1355213Y400364D01*
X1367210Y393700D02*
Y401697D01*
X1363211Y397699D01*
X1368542D01*
X1305306Y703326D02*
X1297309D01*
Y707325D01*
X1298642Y708658D01*
X1301307D01*
X1302640Y707325D01*
Y703326D01*
Y705992D02*
X1305306Y708658D01*
Y716655D02*
Y711323D01*
X1299974Y716655D01*
X1298642D01*
X1297309Y715322D01*
Y712656D01*
X1298642Y711323D01*
Y719321D02*
X1297309Y720654D01*
Y723320D01*
X1298642Y724652D01*
X1299974D01*
X1301307Y723320D01*
Y721987D01*
Y723320D01*
X1302640Y724652D01*
X1303973D01*
X1305306Y723320D01*
Y720654D01*
X1303973Y719321D01*
X1291844Y312166D02*
X1283847D01*
Y316165D01*
X1285179Y317498D01*
X1287845D01*
X1289178Y316165D01*
Y312166D01*
Y314832D02*
X1291844Y317498D01*
Y325495D02*
Y320163D01*
X1286512Y325495D01*
X1285179D01*
X1283847Y324162D01*
Y321496D01*
X1285179Y320163D01*
X1291844Y333492D02*
Y328161D01*
X1286512Y333492D01*
X1285179D01*
X1283847Y332160D01*
Y329494D01*
X1285179Y328161D01*
X1209294Y527050D02*
Y535047D01*
X1213293D01*
X1214626Y533714D01*
Y531049D01*
X1213293Y529716D01*
X1209294D01*
X1211960D02*
X1214626Y527050D01*
X1222623D02*
X1217291D01*
X1222623Y532382D01*
Y533714D01*
X1221290Y535047D01*
X1218624D01*
X1217291Y533714D01*
X1225289Y527050D02*
X1227955D01*
X1226622D01*
Y535047D01*
X1225289Y533714D01*
X1338072Y326136D02*
X1330075D01*
Y330135D01*
X1331407Y331468D01*
X1334073D01*
X1335406Y330135D01*
Y326136D01*
Y328802D02*
X1338072Y331468D01*
Y339465D02*
Y334133D01*
X1332740Y339465D01*
X1331407D01*
X1330075Y338132D01*
Y335466D01*
X1331407Y334133D01*
Y342131D02*
X1330075Y343464D01*
Y346130D01*
X1331407Y347462D01*
X1336739D01*
X1338072Y346130D01*
Y343464D01*
X1336739Y342131D01*
X1331407D01*
X1151890Y538734D02*
Y546731D01*
X1155889D01*
X1157222Y545398D01*
Y542733D01*
X1155889Y541400D01*
X1151890D01*
X1154556D02*
X1157222Y538734D01*
X1159887D02*
X1162553D01*
X1161220D01*
Y546731D01*
X1159887Y545398D01*
X1166552Y540067D02*
X1167885Y538734D01*
X1170551D01*
X1171884Y540067D01*
Y545398D01*
X1170551Y546731D01*
X1167885D01*
X1166552Y545398D01*
Y544066D01*
X1167885Y542733D01*
X1171884D01*
X1344422Y326390D02*
Y334387D01*
X1348421D01*
X1349754Y333055D01*
Y330389D01*
X1348421Y329056D01*
X1344422D01*
X1347088D02*
X1349754Y326390D01*
X1352419D02*
X1355085D01*
X1353752D01*
Y334387D01*
X1352419Y333055D01*
X1359084D02*
X1360417Y334387D01*
X1363083D01*
X1364416Y333055D01*
Y331722D01*
X1363083Y330389D01*
X1364416Y329056D01*
Y327723D01*
X1363083Y326390D01*
X1360417D01*
X1359084Y327723D01*
Y329056D01*
X1360417Y330389D01*
X1359084Y331722D01*
Y333055D01*
X1360417Y330389D02*
X1363083D01*
X1356360Y520927D02*
Y512930D01*
X1361692D01*
X1369689Y520927D02*
X1364357D01*
Y516929D01*
X1367023Y518262D01*
X1368356D01*
X1369689Y516929D01*
Y514263D01*
X1368356Y512930D01*
X1365690D01*
X1364357Y514263D01*
X1247079Y559814D02*
X1245747Y558481D01*
Y555815D01*
X1247079Y554482D01*
X1252411D01*
X1253744Y555815D01*
Y558481D01*
X1252411Y559814D01*
X1249745D01*
Y557148D01*
X1253744Y567811D02*
Y562479D01*
X1248412Y567811D01*
X1247079D01*
X1245747Y566478D01*
Y563812D01*
X1247079Y562479D01*
X1412371Y867410D02*
X1420368D01*
Y871409D01*
X1419035Y872742D01*
X1413703D01*
X1412371Y871409D01*
Y867410D01*
Y875407D02*
X1420368D01*
Y879406D01*
X1419035Y880739D01*
X1413703D01*
X1412371Y879406D01*
Y875407D01*
Y888736D02*
X1413703Y886071D01*
X1416369Y883405D01*
X1419035D01*
X1420368Y884738D01*
Y887404D01*
X1419035Y888736D01*
X1417702D01*
X1416369Y887404D01*
Y883405D01*
X1226820Y360041D02*
Y352044D01*
X1230819D01*
X1232152Y353377D01*
Y358708D01*
X1230819Y360041D01*
X1226820D01*
X1234817D02*
Y352044D01*
X1238816D01*
X1240149Y353377D01*
Y358708D01*
X1238816Y360041D01*
X1234817D01*
X1248146D02*
X1242815D01*
Y356043D01*
X1245481Y357376D01*
X1246814D01*
X1248146Y356043D01*
Y353377D01*
X1246814Y352044D01*
X1244148D01*
X1242815Y353377D01*
X1200150Y391537D02*
Y383540D01*
X1204149D01*
X1205482Y384873D01*
Y390205D01*
X1204149Y391537D01*
X1200150D01*
X1208147D02*
Y383540D01*
X1212146D01*
X1213479Y384873D01*
Y390205D01*
X1212146Y391537D01*
X1208147D01*
X1220144Y383540D02*
Y391537D01*
X1216145Y387539D01*
X1221476D01*
X1140337Y429514D02*
X1148334D01*
Y433513D01*
X1147001Y434846D01*
X1141669D01*
X1140337Y433513D01*
Y429514D01*
Y437511D02*
X1148334D01*
Y441510D01*
X1147001Y442843D01*
X1141669D01*
X1140337Y441510D01*
Y437511D01*
X1141669Y445509D02*
X1140337Y446842D01*
Y449508D01*
X1141669Y450840D01*
X1143002D01*
X1144335Y449508D01*
Y448175D01*
Y449508D01*
X1145668Y450840D01*
X1147001D01*
X1148334Y449508D01*
Y446842D01*
X1147001Y445509D01*
X1243330Y686431D02*
Y678434D01*
X1247329D01*
X1248662Y679767D01*
Y685098D01*
X1247329Y686431D01*
X1243330D01*
X1251327D02*
Y678434D01*
X1255326D01*
X1256659Y679767D01*
Y685098D01*
X1255326Y686431D01*
X1251327D01*
X1264656Y678434D02*
X1259325D01*
X1264656Y683766D01*
Y685098D01*
X1263324Y686431D01*
X1260658D01*
X1259325Y685098D01*
X1384558Y361053D02*
Y353056D01*
X1388557D01*
X1389890Y354389D01*
Y359720D01*
X1388557Y361053D01*
X1384558D01*
X1392555Y353056D02*
Y358388D01*
X1395221Y361053D01*
X1397887Y358388D01*
Y353056D01*
Y357055D01*
X1392555D01*
X1404552Y353056D02*
Y361053D01*
X1400553Y357055D01*
X1405885D01*
X1333694Y832610D02*
X1332361Y831277D01*
Y828611D01*
X1333694Y827278D01*
X1339025D01*
X1340358Y828611D01*
Y831277D01*
X1339025Y832610D01*
X1332361Y840607D02*
Y835275D01*
X1336359D01*
X1335026Y837941D01*
Y839274D01*
X1336359Y840607D01*
X1339025D01*
X1340358Y839274D01*
Y836608D01*
X1339025Y835275D01*
Y843273D02*
X1340358Y844606D01*
Y847272D01*
X1339025Y848604D01*
X1333694D01*
X1332361Y847272D01*
Y844606D01*
X1333694Y843273D01*
X1335026D01*
X1336359Y844606D01*
Y848604D01*
X1353251Y832356D02*
X1351919Y831023D01*
Y828357D01*
X1353251Y827024D01*
X1358583D01*
X1359916Y828357D01*
Y831023D01*
X1358583Y832356D01*
X1351919Y840353D02*
Y835021D01*
X1355917D01*
X1354584Y837687D01*
Y839020D01*
X1355917Y840353D01*
X1358583D01*
X1359916Y839020D01*
Y836354D01*
X1358583Y835021D01*
X1351919Y843019D02*
Y848350D01*
X1353251D01*
X1358583Y843019D01*
X1359916D01*
X1315152Y832864D02*
X1313819Y831531D01*
Y828865D01*
X1315152Y827532D01*
X1320483D01*
X1321816Y828865D01*
Y831531D01*
X1320483Y832864D01*
X1313819Y840861D02*
Y835529D01*
X1317817D01*
X1316484Y838195D01*
Y839528D01*
X1317817Y840861D01*
X1320483D01*
X1321816Y839528D01*
Y836862D01*
X1320483Y835529D01*
X1313819Y848858D02*
X1315152Y846193D01*
X1317817Y843527D01*
X1320483D01*
X1321816Y844860D01*
Y847526D01*
X1320483Y848858D01*
X1319150D01*
X1317817Y847526D01*
Y843527D01*
X1392113Y813052D02*
X1390781Y811719D01*
Y809053D01*
X1392113Y807720D01*
X1397445D01*
X1398778Y809053D01*
Y811719D01*
X1397445Y813052D01*
X1390781Y821049D02*
Y815717D01*
X1394779D01*
X1393446Y818383D01*
Y819716D01*
X1394779Y821049D01*
X1397445D01*
X1398778Y819716D01*
Y817050D01*
X1397445Y815717D01*
X1390781Y829046D02*
Y823715D01*
X1394779D01*
X1393446Y826381D01*
Y827714D01*
X1394779Y829046D01*
X1397445D01*
X1398778Y827714D01*
Y825048D01*
X1397445Y823715D01*
X1319528Y527618D02*
X1318195Y528951D01*
X1315529D01*
X1314196Y527618D01*
Y522287D01*
X1315529Y520954D01*
X1318195D01*
X1319528Y522287D01*
X1327525Y528951D02*
X1322193D01*
Y524953D01*
X1324859Y526286D01*
X1326192D01*
X1327525Y524953D01*
Y522287D01*
X1326192Y520954D01*
X1323526D01*
X1322193Y522287D01*
X1334190Y520954D02*
Y528951D01*
X1330191Y524953D01*
X1335522D01*
X1372556Y813306D02*
X1371223Y811973D01*
Y809307D01*
X1372556Y807974D01*
X1377887D01*
X1379220Y809307D01*
Y811973D01*
X1377887Y813306D01*
X1371223Y821303D02*
Y815971D01*
X1375221D01*
X1373888Y818637D01*
Y819970D01*
X1375221Y821303D01*
X1377887D01*
X1379220Y819970D01*
Y817304D01*
X1377887Y815971D01*
X1379220Y829300D02*
Y823969D01*
X1373888Y829300D01*
X1372556D01*
X1371223Y827968D01*
Y825302D01*
X1372556Y823969D01*
X1265875Y342390D02*
X1264543Y341057D01*
Y338391D01*
X1265875Y337058D01*
X1271207D01*
X1272540Y338391D01*
Y341057D01*
X1271207Y342390D01*
X1264543Y350387D02*
Y345055D01*
X1268541D01*
X1267208Y347721D01*
Y349054D01*
X1268541Y350387D01*
X1271207D01*
X1272540Y349054D01*
Y346388D01*
X1271207Y345055D01*
X1265875Y353053D02*
X1264543Y354386D01*
Y357052D01*
X1265875Y358384D01*
X1271207D01*
X1272540Y357052D01*
Y354386D01*
X1271207Y353053D01*
X1265875D01*
X1249365Y721866D02*
X1248033Y720533D01*
Y717867D01*
X1249365Y716534D01*
X1254697D01*
X1256030Y717867D01*
Y720533D01*
X1254697Y721866D01*
X1256030Y728530D02*
X1248033D01*
X1252031Y724531D01*
Y729863D01*
X1249365Y732529D02*
X1248033Y733862D01*
Y736528D01*
X1249365Y737860D01*
X1250698D01*
X1252031Y736528D01*
Y735195D01*
Y736528D01*
X1253364Y737860D01*
X1254697D01*
X1256030Y736528D01*
Y733862D01*
X1254697Y732529D01*
X1142685Y283462D02*
X1141353Y282129D01*
Y279463D01*
X1142685Y278130D01*
X1148017D01*
X1149350Y279463D01*
Y282129D01*
X1148017Y283462D01*
X1142685Y286127D02*
X1141353Y287460D01*
Y290126D01*
X1142685Y291459D01*
X1144018D01*
X1145351Y290126D01*
Y288793D01*
Y290126D01*
X1146684Y291459D01*
X1148017D01*
X1149350Y290126D01*
Y287460D01*
X1148017Y286127D01*
X1141353Y299456D02*
X1142685Y296791D01*
X1145351Y294125D01*
X1148017D01*
X1149350Y295458D01*
Y298124D01*
X1148017Y299456D01*
X1146684D01*
X1145351Y298124D01*
Y294125D01*
X1229554Y456944D02*
X1228221Y455611D01*
Y452945D01*
X1229554Y451612D01*
X1234885D01*
X1236218Y452945D01*
Y455611D01*
X1234885Y456944D01*
X1229554Y459609D02*
X1228221Y460942D01*
Y463608D01*
X1229554Y464941D01*
X1230886D01*
X1232219Y463608D01*
Y462275D01*
Y463608D01*
X1233552Y464941D01*
X1234885D01*
X1236218Y463608D01*
Y460942D01*
X1234885Y459609D01*
X1228221Y472938D02*
Y467607D01*
X1232219D01*
X1230886Y470273D01*
Y471606D01*
X1232219Y472938D01*
X1234885D01*
X1236218Y471606D01*
Y468940D01*
X1234885Y467607D01*
D18*
X1325880Y487220D02*
X1328420D01*
X1330960D02*
X1333500D01*
X1328420Y485950D02*
Y488490D01*
X1330960Y485950D02*
Y488490D01*
X1340690Y507380D02*
X1344690D01*
X1342690Y505380D02*
Y509380D01*
M02*
