G04*
G04 #@! TF.GenerationSoftware,Altium Limited,Altium Designer,19.1.5 (86)*
G04*
G04 Layer_Physical_Order=2*
G04 Layer_Color=16711680*
%FSLAX44Y44*%
%MOMM*%
G71*
G01*
G75*
%ADD10C,1.0000*%
%ADD15C,0.3000*%
%ADD19R,1.3000X1.0000*%
%ADD21R,3.0000X2.4000*%
%ADD24R,1.0000X1.3000*%
%ADD67C,0.5500*%
%ADD68C,1.6000*%
%ADD69C,2.0000*%
%ADD70R,2.0000X2.0000*%
%ADD71C,1.5240*%
%ADD72C,1.4000*%
%ADD73C,1.8000*%
%ADD74R,1.8000X1.8000*%
%ADD75R,1.6000X1.6000*%
G04:AMPARAMS|DCode=76|XSize=1.7mm|YSize=3mm|CornerRadius=0.425mm|HoleSize=0mm|Usage=FLASHONLY|Rotation=0.000|XOffset=0mm|YOffset=0mm|HoleType=Round|Shape=RoundedRectangle|*
%AMROUNDEDRECTD76*
21,1,1.7000,2.1500,0,0,0.0*
21,1,0.8500,3.0000,0,0,0.0*
1,1,0.8500,0.4250,-1.0750*
1,1,0.8500,-0.4250,-1.0750*
1,1,0.8500,-0.4250,1.0750*
1,1,0.8500,0.4250,1.0750*
%
%ADD76ROUNDEDRECTD76*%
%ADD77C,0.5000*%
%ADD78R,2.0000X2.2000*%
G04:AMPARAMS|DCode=79|XSize=2mm|YSize=2.2mm|CornerRadius=0.5mm|HoleSize=0mm|Usage=FLASHONLY|Rotation=180.000|XOffset=0mm|YOffset=0mm|HoleType=Round|Shape=RoundedRectangle|*
%AMROUNDEDRECTD79*
21,1,2.0000,1.2000,0,0,180.0*
21,1,1.0000,2.2000,0,0,180.0*
1,1,1.0000,-0.5000,0.6000*
1,1,1.0000,0.5000,0.6000*
1,1,1.0000,0.5000,-0.6000*
1,1,1.0000,-0.5000,-0.6000*
%
%ADD79ROUNDEDRECTD79*%
%ADD80R,0.8000X1.0000*%
%ADD81R,2.7000X2.0000*%
%ADD82R,3.7000X2.4500*%
%ADD83C,0.7000*%
G36*
X1390650Y975105D02*
X1389380Y974479D01*
X1387812Y975682D01*
X1384893Y976891D01*
X1384510Y976942D01*
Y965200D01*
Y953458D01*
X1384893Y953509D01*
X1387812Y954718D01*
X1390318Y956641D01*
X1390835Y957315D01*
X1392102Y957398D01*
X1407160Y942340D01*
X1407160Y708660D01*
X1384507D01*
X1384003Y708996D01*
X1381760Y709443D01*
X1332230D01*
X1329987Y708996D01*
X1329483Y708660D01*
X1324834D01*
X1310640Y722855D01*
X1310640Y737870D01*
X1313180Y741680D01*
X1316774Y745274D01*
X1318260Y745078D01*
X1321391Y745490D01*
X1340529D01*
X1343660Y745078D01*
X1346791Y745490D01*
X1356360Y745490D01*
X1357340Y746190D01*
X1357630Y746190D01*
X1366310D01*
Y758190D01*
Y770190D01*
X1357630D01*
X1357060Y770190D01*
X1356360Y771170D01*
Y800114D01*
X1275960D01*
Y803380D01*
X1267460D01*
X1258960D01*
Y800114D01*
X1253604D01*
Y834741D01*
X1350010Y918210D01*
Y921990D01*
X1351580D01*
Y927860D01*
X1352760Y928163D01*
X1353466Y926460D01*
X1354588Y924997D01*
X1356050Y923876D01*
X1357753Y923170D01*
X1359580Y922930D01*
X1361830D01*
Y935990D01*
Y949050D01*
X1359580D01*
X1357753Y948810D01*
X1356050Y948104D01*
X1354588Y946982D01*
X1353466Y945520D01*
X1352760Y943817D01*
X1351580Y944120D01*
Y949990D01*
X1350010D01*
Y982330D01*
X1351853D01*
Y989330D01*
Y996330D01*
X1350010D01*
Y999490D01*
X1390650D01*
X1390650Y975105D01*
D02*
G37*
G36*
X1282996Y668020D02*
Y666360D01*
X1282050D01*
Y660610D01*
X1289050D01*
X1296050D01*
Y666360D01*
X1294721D01*
Y668020D01*
X1314330Y668020D01*
X1314624Y667630D01*
X1313990Y666360D01*
X1313390D01*
Y657860D01*
Y649360D01*
X1317640D01*
Y659398D01*
X1318910Y660077D01*
X1319589Y659624D01*
X1321832Y659177D01*
X1322640Y658043D01*
Y649580D01*
X1322640Y648360D01*
X1322640D01*
Y648310D01*
X1322640D01*
Y635000D01*
X1317752D01*
X1317640Y635022D01*
Y636060D01*
X1313390D01*
Y630310D01*
X1314612D01*
X1315720Y629040D01*
Y626760D01*
X1313390D01*
Y618260D01*
Y609760D01*
X1315720D01*
Y604520D01*
Y528574D01*
X1315974Y528320D01*
X1300480Y512826D01*
X1210564D01*
X1208532Y514858D01*
X1165860D01*
X1159510Y521208D01*
X1159259Y598540D01*
X1160155Y599440D01*
X1168658D01*
X1169626Y599247D01*
X1186770D01*
X1187738Y599440D01*
X1188847D01*
X1196340Y604520D01*
X1276350D01*
Y608760D01*
X1277050D01*
Y613840D01*
X1277721Y614844D01*
X1278148Y616990D01*
X1277721Y619136D01*
X1277050Y620140D01*
Y627760D01*
X1276350D01*
Y629310D01*
X1277050D01*
Y647090D01*
X1277050Y648310D01*
X1277050D01*
X1277050Y648360D01*
X1277050D01*
Y666750D01*
X1278046Y668020D01*
X1282996D01*
D02*
G37*
G36*
X1290320Y455930D02*
Y360680D01*
X1281430Y351790D01*
X1263650D01*
X1259840Y355600D01*
Y367030D01*
X1247140Y379730D01*
X1174750Y379730D01*
Y385200D01*
X1175490D01*
Y393700D01*
Y402200D01*
X1174750D01*
Y404250D01*
X1175810D01*
Y412750D01*
Y421250D01*
X1174750D01*
Y427990D01*
X1169670Y433070D01*
Y440660D01*
X1175810D01*
Y454660D01*
X1178560D01*
Y457410D01*
X1195560D01*
Y461010D01*
X1285240D01*
X1290320Y455930D01*
D02*
G37*
G36*
X1427480Y284734D02*
X1419606Y276860D01*
X1419352Y277114D01*
X1396486D01*
X1395340Y277414D01*
X1395340Y278384D01*
Y281664D01*
X1378340D01*
Y277414D01*
X1377194Y277114D01*
X1372710D01*
Y281460D01*
X1362710D01*
Y284210D01*
X1359960D01*
Y294210D01*
X1353312D01*
Y295148D01*
X1346962Y301498D01*
X1327404D01*
X1326388Y433070D01*
X1421384Y528066D01*
X1427480D01*
Y284734D01*
D02*
G37*
G36*
X1320292Y259588D02*
X1324864Y255016D01*
X1330805D01*
X1331763Y254282D01*
X1334438Y253173D01*
X1337310Y252795D01*
X1340182Y253173D01*
X1342858Y254282D01*
X1343815Y255016D01*
X1349248D01*
Y265938D01*
X1351504Y268194D01*
X1352398Y268130D01*
X1353150Y266942D01*
X1353025Y266640D01*
X1372395D01*
X1372071Y267422D01*
X1372776Y268478D01*
X1378340D01*
Y267164D01*
X1395340D01*
Y268478D01*
X1419860D01*
Y255916D01*
X1418590Y255195D01*
X1416490Y255612D01*
X1414990D01*
Y238490D01*
Y221368D01*
X1416490D01*
X1418590Y221785D01*
X1419860Y221064D01*
Y215392D01*
X1415288Y210820D01*
X1288288D01*
X1280414Y218694D01*
Y220734D01*
X1281396Y221539D01*
X1282260Y221368D01*
X1283760D01*
Y238490D01*
Y255612D01*
X1282260D01*
X1281186Y255399D01*
X1280692Y255804D01*
X1280163Y256489D01*
X1280414Y271526D01*
X1287018Y278130D01*
X1320292D01*
Y259588D01*
D02*
G37*
%LPC*%
G36*
X1363103Y996330D02*
X1357353D01*
Y992080D01*
X1363103D01*
Y996330D01*
D02*
G37*
G36*
Y986580D02*
X1357353D01*
Y982330D01*
X1363103D01*
Y986580D01*
D02*
G37*
G36*
X1379010Y976942D02*
X1378627Y976891D01*
X1375708Y975682D01*
X1373201Y973758D01*
X1371278Y971252D01*
X1370069Y968333D01*
X1370018Y967950D01*
X1379010D01*
Y976942D01*
D02*
G37*
G36*
Y962450D02*
X1370018D01*
X1370069Y962067D01*
X1371278Y959148D01*
X1373201Y956641D01*
X1375708Y954718D01*
X1378627Y953509D01*
X1379010Y953458D01*
Y962450D01*
D02*
G37*
G36*
X1369580Y949050D02*
X1367330D01*
Y938740D01*
X1376640D01*
Y941990D01*
X1376400Y943817D01*
X1375694Y945520D01*
X1374572Y946982D01*
X1373110Y948104D01*
X1371407Y948810D01*
X1369580Y949050D01*
D02*
G37*
G36*
X1376640Y933240D02*
X1367330D01*
Y922930D01*
X1369580D01*
X1371407Y923170D01*
X1373110Y923876D01*
X1374572Y924997D01*
X1375694Y926460D01*
X1376400Y928163D01*
X1376640Y929990D01*
Y933240D01*
D02*
G37*
G36*
X1275960Y813130D02*
X1270210D01*
Y808880D01*
X1275960D01*
Y813130D01*
D02*
G37*
G36*
X1264710D02*
X1258960D01*
Y808880D01*
X1264710D01*
Y813130D01*
D02*
G37*
G36*
X1371810Y770190D02*
Y760940D01*
X1381060D01*
Y770190D01*
X1371810D01*
D02*
G37*
G36*
X1381060Y755440D02*
X1371810D01*
Y746190D01*
X1381060D01*
Y755440D01*
D02*
G37*
G36*
X1307890Y666360D02*
X1303640D01*
Y660610D01*
X1307890D01*
Y666360D01*
D02*
G37*
G36*
Y655110D02*
X1303640D01*
Y649360D01*
X1307890D01*
Y655110D01*
D02*
G37*
G36*
X1296050Y655110D02*
X1291800D01*
Y649360D01*
X1296050D01*
Y655110D01*
D02*
G37*
G36*
X1286300D02*
X1282050D01*
Y649360D01*
X1286300D01*
Y655110D01*
D02*
G37*
G36*
X1317640Y647310D02*
X1313390D01*
Y641560D01*
X1317640D01*
Y647310D01*
D02*
G37*
G36*
X1296050D02*
X1291800D01*
Y641560D01*
X1296050D01*
Y647310D01*
D02*
G37*
G36*
X1307890D02*
X1303640D01*
Y641560D01*
X1307890D01*
Y647310D01*
D02*
G37*
G36*
X1286300D02*
X1282050D01*
Y641560D01*
X1286300D01*
Y647310D01*
D02*
G37*
G36*
X1307890Y636060D02*
X1303640D01*
Y630310D01*
X1307890D01*
Y636060D01*
D02*
G37*
G36*
X1296050D02*
X1291800D01*
Y630310D01*
X1296050D01*
Y636060D01*
D02*
G37*
G36*
X1286300D02*
X1282050D01*
Y630310D01*
X1286300D01*
Y636060D01*
D02*
G37*
G36*
X1296050Y626760D02*
X1291800D01*
Y621010D01*
X1296050D01*
Y626760D01*
D02*
G37*
G36*
X1307890D02*
X1303640D01*
Y621010D01*
X1307890D01*
Y626760D01*
D02*
G37*
G36*
X1286300D02*
X1282050D01*
Y621010D01*
X1286300D01*
Y626760D01*
D02*
G37*
G36*
X1307890Y615510D02*
X1303640D01*
Y609760D01*
X1307890D01*
Y615510D01*
D02*
G37*
G36*
X1296050D02*
X1291800D01*
Y609760D01*
X1296050D01*
Y615510D01*
D02*
G37*
G36*
X1286300D02*
X1282050D01*
Y609760D01*
X1286300D01*
Y615510D01*
D02*
G37*
G36*
X1281040Y531190D02*
X1275290D01*
Y526940D01*
X1281040D01*
Y531190D01*
D02*
G37*
G36*
X1249470Y531842D02*
X1247681Y531101D01*
X1245801Y529659D01*
X1244359Y527779D01*
X1243618Y525990D01*
X1249470D01*
Y531842D01*
D02*
G37*
G36*
X1281040Y521440D02*
X1275290D01*
Y517190D01*
X1281040D01*
Y521440D01*
D02*
G37*
G36*
X1254970Y531842D02*
Y523240D01*
Y514638D01*
X1256759Y515378D01*
X1258639Y516821D01*
X1259430Y517852D01*
X1264040D01*
Y517190D01*
X1269790D01*
Y524190D01*
Y531190D01*
X1264040D01*
Y529578D01*
X1258701D01*
X1258639Y529659D01*
X1256759Y531101D01*
X1254970Y531842D01*
D02*
G37*
G36*
X1249470Y520490D02*
X1243618D01*
X1244359Y518701D01*
X1245801Y516821D01*
X1247681Y515378D01*
X1249470Y514638D01*
Y520490D01*
D02*
G37*
G36*
X1281040Y456580D02*
X1275290D01*
Y452330D01*
X1281040D01*
Y456580D01*
D02*
G37*
G36*
X1269790D02*
X1264040D01*
Y452330D01*
X1269790D01*
Y456580D01*
D02*
G37*
G36*
X1254970Y455642D02*
Y449790D01*
X1260822D01*
X1260081Y451579D01*
X1258639Y453459D01*
X1256759Y454902D01*
X1254970Y455642D01*
D02*
G37*
G36*
X1249470D02*
X1247681Y454902D01*
X1245801Y453459D01*
X1244359Y451579D01*
X1243618Y449790D01*
X1249470D01*
Y455642D01*
D02*
G37*
G36*
X1281040Y446830D02*
X1275290D01*
Y442580D01*
X1281040D01*
Y446830D01*
D02*
G37*
G36*
X1269790D02*
X1264040D01*
Y442580D01*
X1269790D01*
Y446830D01*
D02*
G37*
G36*
X1195560Y451910D02*
X1181310D01*
Y440660D01*
X1195560D01*
Y451910D01*
D02*
G37*
G36*
X1260822Y444290D02*
X1254970D01*
Y438438D01*
X1256759Y439179D01*
X1258639Y440621D01*
X1260081Y442501D01*
X1260822Y444290D01*
D02*
G37*
G36*
X1249470D02*
X1243618D01*
X1244359Y442501D01*
X1245801Y440621D01*
X1247681Y439179D01*
X1249470Y438438D01*
Y444290D01*
D02*
G37*
G36*
X1185560Y421250D02*
X1181310D01*
Y415500D01*
X1185560D01*
Y421250D01*
D02*
G37*
G36*
Y410000D02*
X1181310D01*
Y404250D01*
X1185560D01*
Y410000D01*
D02*
G37*
G36*
X1185240Y402200D02*
X1180990D01*
Y396450D01*
X1185240D01*
Y402200D01*
D02*
G37*
G36*
Y390950D02*
X1180990D01*
Y385200D01*
X1185240D01*
Y390950D01*
D02*
G37*
G36*
X1395340Y291414D02*
X1389590D01*
Y287164D01*
X1395340D01*
Y291414D01*
D02*
G37*
G36*
X1384090D02*
X1378340D01*
Y287164D01*
X1384090D01*
Y291414D01*
D02*
G37*
G36*
X1372710Y294210D02*
X1365460D01*
Y286960D01*
X1372710D01*
Y294210D01*
D02*
G37*
G36*
X1395340Y261664D02*
X1389590D01*
Y257414D01*
X1395340D01*
Y261664D01*
D02*
G37*
G36*
X1384090D02*
X1378340D01*
Y257414D01*
X1384090D01*
Y261664D01*
D02*
G37*
G36*
X1372395Y261140D02*
X1365460D01*
Y254205D01*
X1367753Y255155D01*
X1369842Y256758D01*
X1371445Y258847D01*
X1372395Y261140D01*
D02*
G37*
G36*
X1359960D02*
X1353025D01*
X1353975Y258847D01*
X1355578Y256758D01*
X1357667Y255155D01*
X1359960Y254205D01*
Y261140D01*
D02*
G37*
G36*
X1409490Y255612D02*
X1407990D01*
X1405551Y255127D01*
X1403484Y253746D01*
X1402103Y251679D01*
X1401618Y249240D01*
Y241240D01*
X1409490D01*
Y255612D01*
D02*
G37*
G36*
X1290760D02*
X1289260D01*
Y241240D01*
X1297132D01*
Y249240D01*
X1296647Y251679D01*
X1295266Y253746D01*
X1293199Y255127D01*
X1290760Y255612D01*
D02*
G37*
G36*
X1409490Y235740D02*
X1401618D01*
Y227740D01*
X1402103Y225301D01*
X1403484Y223234D01*
X1405551Y221853D01*
X1407990Y221368D01*
X1409490D01*
Y235740D01*
D02*
G37*
G36*
X1297132D02*
X1289260D01*
Y221368D01*
X1290760D01*
X1293199Y221853D01*
X1295266Y223234D01*
X1296647Y225301D01*
X1297132Y227740D01*
Y235740D01*
D02*
G37*
%LPD*%
D10*
X1186180Y324342D02*
X1192038Y330200D01*
X1222990D01*
X1225550Y327640D01*
X1186180Y313420D02*
Y324342D01*
X1184910Y312150D02*
X1186180Y313420D01*
D15*
X1334270Y940300D02*
X1335060Y939510D01*
D19*
X1249680Y994410D02*
D03*
Y974410D02*
D03*
X1275080Y994090D02*
D03*
Y974090D02*
D03*
X1386840Y284414D02*
D03*
Y264414D02*
D03*
X1267460Y786130D02*
D03*
Y806130D02*
D03*
X1338093Y1009330D02*
D03*
Y989330D02*
D03*
X1354603D02*
D03*
Y1009330D02*
D03*
X1272540Y504190D02*
D03*
Y524190D02*
D03*
Y449580D02*
D03*
Y469580D02*
D03*
X1252220Y306120D02*
D03*
Y326120D02*
D03*
D21*
X1178561Y499661D02*
D03*
X1178560Y454660D02*
D03*
D24*
X1313180Y783590D02*
D03*
X1293180D02*
D03*
X1330640Y618260D02*
D03*
X1310640D02*
D03*
Y638810D02*
D03*
X1330640D02*
D03*
Y657860D02*
D03*
X1310640D02*
D03*
X1289050Y618260D02*
D03*
X1269050D02*
D03*
Y638810D02*
D03*
X1289050D02*
D03*
X1269050Y657860D02*
D03*
X1289050D02*
D03*
X1194750Y633730D02*
D03*
X1174750D02*
D03*
X1194750Y650240D02*
D03*
X1174750D02*
D03*
X1158240Y393700D02*
D03*
X1178240D02*
D03*
X1158560Y412750D02*
D03*
X1178560D02*
D03*
D67*
X1424686Y947674D02*
X1424686Y494030D01*
X1407160Y965200D02*
X1424686Y947674D01*
X1174750Y617480D02*
Y633730D01*
Y650240D02*
Y665480D01*
X1317498Y434848D02*
X1336040Y453390D01*
X1317498Y272167D02*
Y434848D01*
X1286510Y238490D02*
Y244990D01*
X1329690Y563626D02*
X1330640Y564576D01*
Y618260D01*
X1267460Y758190D02*
Y781370D01*
X1224280Y908050D02*
X1229360Y902970D01*
X1224280Y908050D02*
Y925830D01*
X1229360Y902970D02*
X1306560D01*
X1338580Y934990D01*
Y935990D01*
X1224280Y925830D02*
Y951230D01*
X1338093Y936477D02*
X1338580Y935990D01*
X1338093Y936477D02*
Y989330D01*
X1313180Y782090D02*
Y783590D01*
Y782090D02*
X1318260Y777010D01*
Y758190D02*
Y777010D01*
X1293020Y758350D02*
Y783430D01*
X1293180Y783590D01*
X1292860Y758190D02*
X1293020Y758350D01*
X1272065Y523715D02*
X1272540Y524190D01*
X1252695Y523715D02*
X1272065D01*
X1252220Y523240D02*
X1252695Y523715D01*
X1284558Y676910D02*
X1288858Y672610D01*
Y658052D02*
Y672610D01*
Y658052D02*
X1289050Y657860D01*
X1211580Y676910D02*
X1284558D01*
X1195070Y660400D02*
X1211580Y676910D01*
X1195070Y650560D02*
Y660400D01*
X1194750Y650240D02*
X1195070Y650560D01*
X1194750Y633730D02*
Y650240D01*
X1321832Y665040D02*
X1322392Y665600D01*
X1319530Y673100D02*
X1362710D01*
X1283970Y708660D02*
X1319530Y673100D01*
X1323270Y680720D02*
X1365697D01*
X1287410Y716580D02*
X1323270Y680720D01*
X1326017Y688580D02*
X1374723D01*
X1290517Y724080D02*
X1326017Y688580D01*
X1329123Y696080D02*
X1377830D01*
X1292860Y732343D02*
X1329123Y696080D01*
X1324400Y665600D02*
X1330640Y659360D01*
X1322392Y665600D02*
X1324400D01*
X1269050Y657860D02*
X1269050Y657860D01*
Y638810D02*
Y657860D01*
Y638810D02*
X1269050Y638810D01*
Y618260D02*
Y638810D01*
X1330640Y657860D02*
Y659360D01*
Y638810D02*
Y657860D01*
Y618260D02*
Y638810D01*
X1320800Y615950D02*
X1328390D01*
X1300480Y360680D02*
Y483870D01*
X1290320Y350520D02*
X1300480Y360680D01*
Y483870D02*
X1408430Y591820D01*
X1177290Y908050D02*
Y990600D01*
Y908050D02*
X1197610Y887730D01*
Y781879D02*
Y887730D01*
X1179830Y788954D02*
Y852170D01*
X1388110Y609600D02*
Y675193D01*
X1379220Y596900D02*
Y667197D01*
X1365697Y680720D02*
X1379220Y667197D01*
X1179830Y852170D02*
X1188720Y861060D01*
Y864679D01*
X1369060Y623570D02*
Y666750D01*
X1362710Y673100D02*
X1369060Y666750D01*
X1374723Y688580D02*
X1388110Y675193D01*
X1248410Y708660D02*
X1283970D01*
X1169670Y787400D02*
X1248410Y708660D01*
X1169670Y787400D02*
Y864075D01*
X1408430Y591820D02*
Y676910D01*
X1397858Y666750D02*
Y676052D01*
X1377830Y696080D02*
X1397858Y676052D01*
X1381760Y703580D02*
X1408430Y676910D01*
X1332230Y703580D02*
X1381760D01*
X1179830Y788954D02*
X1252204Y716580D01*
X1287410D01*
X1177290Y990600D02*
X1189990Y1003300D01*
X1246458D01*
X1249680Y1000078D01*
Y994410D02*
Y1000078D01*
X1255310Y724080D02*
X1290517D01*
X1292860Y732343D02*
Y758190D01*
X1197561Y781830D02*
X1255310Y724080D01*
X1169626Y605110D02*
X1186770D01*
X1157090Y617646D02*
X1169626Y605110D01*
X1157090Y617646D02*
Y1012310D01*
X1186770Y605110D02*
X1201560Y619900D01*
X1157090Y1012310D02*
X1157605Y1012825D01*
X1201560Y619900D02*
X1237120D01*
X1271040Y504190D02*
X1272540D01*
X1266316Y499466D02*
X1271040Y504190D01*
X1253846Y499466D02*
X1266316D01*
X1252220Y497840D02*
X1253846Y499466D01*
X1275080Y1013460D02*
X1403350D01*
X1158240D02*
X1275080D01*
X1403350D02*
X1407160Y1017270D01*
Y1041400D01*
X1364580Y935990D02*
Y938208D01*
X1158400Y412590D02*
Y497158D01*
X1161622Y500380D01*
X1177842D01*
X1178561Y499661D01*
X1202690Y479472D02*
X1209722Y472440D01*
X1252220D01*
X1202690Y479472D02*
Y494030D01*
X1198880Y497840D02*
X1202690Y494030D01*
X1180382Y497840D02*
X1198880D01*
X1178561Y499661D02*
X1180382Y497840D01*
X1252220Y472440D02*
X1253650Y471010D01*
X1271110D01*
X1272540Y469580D01*
D68*
X1300480Y951230D02*
D03*
Y925830D02*
D03*
X1275080Y951230D02*
D03*
Y925830D02*
D03*
X1198880D02*
D03*
Y951230D02*
D03*
X1224280Y925830D02*
D03*
Y951230D02*
D03*
X1249680Y925830D02*
D03*
Y951230D02*
D03*
X1337310Y284210D02*
D03*
X1362710Y263890D02*
D03*
X1337310D02*
D03*
D69*
X1381760Y965200D02*
D03*
X1407160D02*
D03*
X1381760Y1041400D02*
D03*
X1242060Y758190D02*
D03*
X1267460D02*
D03*
X1292860D02*
D03*
X1318260D02*
D03*
X1343660D02*
D03*
D70*
X1407160Y1041400D02*
D03*
X1369060Y758190D02*
D03*
D71*
X1174750Y617480D02*
D03*
Y665480D02*
D03*
D72*
X1252220Y447040D02*
D03*
Y472440D02*
D03*
Y523240D02*
D03*
Y497840D02*
D03*
D73*
X1233170Y237220D02*
D03*
X1207770D02*
D03*
D74*
X1182370D02*
D03*
D75*
X1362710Y284210D02*
D03*
D76*
X1412240Y238490D02*
D03*
X1286510D02*
D03*
D77*
X1384554Y472186D02*
D03*
X1176528Y533400D02*
D03*
X1329690Y563626D02*
D03*
X1302662Y852170D02*
D03*
X1320800Y723900D02*
D03*
X1289050Y662940D02*
D03*
X1269170Y665040D02*
D03*
X1321832Y665040D02*
D03*
X1318260Y652780D02*
D03*
X1281499Y630040D02*
D03*
X1272540Y616990D02*
D03*
X1320800Y615950D02*
D03*
X1304865Y610175D02*
D03*
X1388110Y609600D02*
D03*
X1379220Y596900D02*
D03*
X1188720Y864679D02*
D03*
X1369060Y623570D02*
D03*
X1397858Y666750D02*
D03*
X1332230Y703580D02*
D03*
X1237120Y619900D02*
D03*
X1267460Y361950D02*
D03*
X1336040Y453390D02*
D03*
X1334770Y392430D02*
D03*
X1160780Y354330D02*
D03*
X1290320Y350520D02*
D03*
X1169670Y864075D02*
D03*
X1191578Y389572D02*
D03*
X1262380Y273050D02*
D03*
X1233170D02*
D03*
D78*
X1338580Y935990D02*
D03*
D79*
X1364580D02*
D03*
D80*
X1182370Y261010D02*
D03*
X1195070D02*
D03*
X1188720Y282940D02*
D03*
D81*
X1278890Y326390D02*
D03*
Y293390D02*
D03*
X1225550Y327640D02*
D03*
Y294640D02*
D03*
D82*
X1184910Y363650D02*
D03*
Y312150D02*
D03*
D83*
X1158240Y354330D02*
Y356870D01*
X1275080Y994090D02*
Y1013460D01*
X1158240Y220980D02*
Y354330D01*
Y220980D02*
X1164590Y214630D01*
X1160780Y354330D02*
X1160910Y354200D01*
X1231065Y235115D02*
X1233170Y237220D01*
X1164590Y214630D02*
X1226820D01*
X1231065Y218875D01*
Y235115D01*
X1233170Y237220D02*
X1234440Y235950D01*
X1158240Y356870D02*
X1160780Y354330D01*
X1249680Y951230D02*
Y974410D01*
X1275080Y951230D02*
Y974090D01*
X1158240Y393700D02*
X1158400Y393860D01*
Y412590D01*
X1158560Y412750D01*
X1158240Y356870D02*
Y393700D01*
X1262380Y280380D02*
X1275390Y293390D01*
X1262380Y273050D02*
Y280380D01*
X1252220Y264160D02*
Y306120D01*
X1247570Y259510D02*
X1252220Y264160D01*
X1204980Y259510D02*
X1247570D01*
X1225550Y280670D02*
X1233170Y273050D01*
X1225550Y280670D02*
Y294640D01*
X1252220Y306120D02*
X1253720Y307620D01*
X1256620D01*
X1275390Y326390D01*
X1278890D01*
X1275390Y293390D02*
X1278890D01*
X1177290Y237220D02*
X1177290Y237220D01*
X1190670Y369410D02*
X1243220D01*
X1184910Y363650D02*
X1190670Y369410D01*
X1243220D02*
X1252220Y360410D01*
Y326120D02*
Y360410D01*
X1281280Y293390D02*
X1287780Y286890D01*
X1278890Y293390D02*
X1281280D01*
X1184910Y312150D02*
X1186180Y310880D01*
X1173480Y270901D02*
Y303400D01*
X1182230Y312150D01*
X1184910D01*
X1173480Y270901D02*
X1182370Y262010D01*
Y261010D02*
Y262010D01*
X1278890Y326390D02*
X1282170Y329670D01*
X1204980Y259510D02*
X1207770Y256720D01*
X1195570Y259510D02*
X1204980D01*
X1195070Y260010D02*
X1195570Y259510D01*
X1195070Y260010D02*
Y261010D01*
X1207770Y237220D02*
Y256720D01*
X1182370Y261010D02*
X1182370Y261010D01*
X1182370Y237220D02*
Y261010D01*
M02*
