M48
;Layer_Color=9474304
;FILE_FORMAT=4:4
METRIC,LZ
;TYPE=PLATED
T1F00S00C0.3000
T2F00S00C0.7010
T3F00S00C0.7620
T4F00S00C1.0000
T6F00S00C1.2000
T7F00S00C1.3000
%
T01
X0116078Y0035433
X01191578Y00389572
X0126746Y0036195
X0129032Y0035052
X0133477Y0039243
X0126238Y0027305
X0123317
X0133604Y0045339
X01384554Y00472186
X0137922Y005969
X0138811Y006096
X0136906Y0062357
X013208Y0061595
X01304865Y00610175
X0127254Y0061699
X01281499Y0063004
X0128905Y0066294
X0126917Y0066504
X01321832Y0066504
X0131826Y0065278
X0133223Y0070358
X013208Y007239
X01397858Y0066675
X0132969Y00563626
X0123712Y006199
X01176528Y005334
X0116967Y00864075
X0118872Y00864679
X01302662Y0085217
T02
X0125222Y0044704
Y0047244
Y0049784
Y0052324
T03
X0117475Y0061748
Y0066548
T04
X0133731Y0026389
Y0028421
X0136271
Y0026389
X0130048Y0092583
Y0095123
X0127508
Y0092583
X0124968
X0122428
X0119888
Y0095123
X0122428
X0124968
T06
X0120777Y0023722
X0123317
T07
X0118237Y0023722
X0124206Y0075819
X0126746
X0129286
X0131826
X0134366
X0136906
X0138176Y009652
X0140716
Y010414
X0138176
M30
